<svg width="16" height="16" viewBox="0 0 16 16" fill="none" xmlns="http://www.w3.org/2000/svg">
<g id="vuesax/linear/car">
<g id="car">
<path id="Vector" d="M10.3398 1.88672H5.65984C3.99984 1.88672 3.63317 2.71339 3.41984 3.72672L2.6665 7.33339H13.3332L12.5798 3.72672C12.3665 2.71339 11.9998 1.88672 10.3398 1.88672Z" stroke="#0669FF" stroke-linecap="round" stroke-linejoin="round"/>
<path id="Vector_2" d="M14.6603 13.2134C14.7336 13.9934 14.107 14.6667 13.307 14.6667H12.0536C11.3336 14.6667 11.2336 14.36 11.107 13.98L10.9736 13.58C10.787 13.0334 10.667 12.6667 9.70698 12.6667H6.29365C5.33365 12.6667 5.19365 13.08 5.02698 13.58L4.89365 13.98C4.76698 14.36 4.66698 14.6667 3.94698 14.6667H2.69365C1.89365 14.6667 1.26698 13.9934 1.34031 13.2134L1.71365 9.15337C1.80698 8.15337 2.00031 7.33337 3.74698 7.33337H12.2536C14.0003 7.33337 14.1936 8.15337 14.287 9.15337L14.6603 13.2134Z" stroke="#0669FF" stroke-linecap="round" stroke-linejoin="round"/>
<path id="Vector_3" d="M2.66667 5.33337H2" stroke="#0669FF" stroke-linecap="round" stroke-linejoin="round"/>
<path id="Vector_4" d="M14.0002 5.33337H13.3335" stroke="#0669FF" stroke-linecap="round" stroke-linejoin="round"/>
<path id="Vector_5" d="M8 2V3.33333" stroke="#0669FF" stroke-linecap="round" stroke-linejoin="round"/>
<path id="Vector_6" d="M7 3.33337H9" stroke="#0669FF" stroke-linecap="round" stroke-linejoin="round"/>
<path id="Vector_7" d="M4 10H6" stroke="#0669FF" stroke-linecap="round" stroke-linejoin="round"/>
<path id="Vector_8" d="M10 10H12" stroke="#0669FF" stroke-linecap="round" stroke-linejoin="round"/>
</g>
</g>
</svg>
