<svg width="48" height="48" viewBox="0 0 48 48" fill="none" xmlns="http://www.w3.org/2000/svg">
<path d="M34 42H14C6 42 4 40 4 32V16C4 8 6 6 14 6H34C42 6 44 8 44 16V32C44 40 42 42 34 42Z" stroke="#0669FF" stroke-width="2" stroke-linecap="round" stroke-linejoin="round"/>
<path d="M28 16H38" stroke="#0669FF" stroke-width="2" stroke-linecap="round" stroke-linejoin="round"/>
<path d="M30 24H38" stroke="#0669FF" stroke-width="2" stroke-linecap="round" stroke-linejoin="round"/>
<path d="M34 32H38" stroke="#0669FF" stroke-width="2" stroke-linecap="round" stroke-linejoin="round"/>
<path d="M17 22.58C18.9993 22.58 20.62 20.9593 20.62 18.96C20.62 16.9608 18.9993 15.34 17 15.34C15.0007 15.34 13.38 16.9608 13.38 18.96C13.38 20.9593 15.0007 22.58 17 22.58Z" stroke="#0669FF" stroke-width="2" stroke-linecap="round" stroke-linejoin="round"/>
<path d="M24 32.66C23.72 29.76 21.42 27.48 18.52 27.22C17.52 27.12 16.5 27.12 15.48 27.22C12.58 27.5 10.28 29.76 10 32.66" stroke="#0669FF" stroke-width="2" stroke-linecap="round" stroke-linejoin="round"/>
</svg>
