<svg width="207" height="60" viewBox="0 0 207 60" fill="none" xmlns="http://www.w3.org/2000/svg">
<g id="Frame" clip-path="url(#clip0_907_1418)">
<path id="Name" d="M197.355 52.2453C201.416 52.2453 204.293 51.5095 206.436 49.9245V42.7359C204.236 44.2642 201.585 45.2264 197.863 45.2264C191.602 45.2264 189.007 40.3585 189.007 32.6604C189.007 24.5661 192.166 20.434 197.919 20.434C201.303 20.434 204.631 21.6227 206.38 22.7547V15.283C204.518 14.2642 201.303 13.5283 196.904 13.5283C185.68 13.5283 179.87 21.6227 179.87 32.9434C179.926 45.3396 185.623 52.2453 197.355 52.2453ZM142.475 48.9623V41.7736C139.767 43.6415 135.142 45.283 130.912 45.283C124.482 45.283 122.057 42.2264 121.662 36H142.869V31.3585C142.869 18.3962 137.173 13.5283 128.43 13.5283C117.714 13.5283 112.637 21.7359 112.637 33C112.637 45.9623 119.011 52.2453 130.179 52.2453C135.763 52.2453 139.88 50.717 142.475 48.9623ZM61.9872 14.2076V28.9245H50.2553V14.2076H41.4564V51.5095H50.2553V35.9434H61.9872V51.5095H70.7861V14.2076H61.9872ZM110.438 44.4906H106.546V14.2076H80.9387V17.3774C80.9387 26.4906 80.3746 38.2642 77.2725 44.4906H74.4523V60H82.5744V51.5095H102.259V60H110.381V44.4906H110.438ZM170.507 51.5095H180.49L166.39 31.4151L178.798 14.2076H169.943L157.534 31.4151V14.2076H148.735V51.5095H157.534V33.1698L170.507 51.5095ZM128.205 20.434C132.548 20.434 133.901 24.0566 133.901 28.7547V29.4906H121.662C121.887 23.5472 124.031 20.434 128.205 20.434ZM97.7469 44.4906H85.3381C87.7635 38.8868 88.4403 28.6981 88.4403 22.2453V21.1132H97.7469V44.4906Z" fill="black" fill-opacity="0.9"/>
<g id="Glyph">
<path d="M34.124 51.5094H25.1559V6.96226H21.1512C13.8188 6.96226 9.98338 10.6415 9.98338 16.1321C9.98338 22.3585 12.6343 25.2453 18.1054 28.9245L22.6177 31.9811L9.64496 51.5094H0L11.6755 34.0755C4.96349 29.2642 1.18447 24.566 1.18447 16.6415C1.18447 6.73585 8.06567 0 21.0948 0H34.0676L34.124 51.5094Z" fill="white"/>
<path d="M9.24278 50.7594H1.40492L12.2986 34.4928L12.7029 33.8892L12.1124 33.4659C8.78924 31.0838 6.25316 28.7714 4.54331 26.1195C2.84419 23.4843 1.93447 20.4721 1.93447 16.6415C1.93447 11.8716 3.58488 7.93023 6.74681 5.17125C9.92063 2.40188 14.7029 0.75 21.0948 0.75H33.3184L33.3732 50.7594H25.9059V6.96226V6.21226H25.1559H21.1512C17.3675 6.21226 14.3814 7.16149 12.3298 8.91856C10.2638 10.6879 9.23338 13.2017 9.23338 16.1321C9.23338 19.3636 9.92499 21.7984 11.3746 23.9082C12.8055 25.9907 14.9363 27.6971 17.6861 29.5463C17.6864 29.5465 17.6866 29.5467 17.6869 29.5469L21.5817 32.1852L9.24278 50.7594Z" stroke="black" stroke-opacity="0.9" stroke-width="1.5"/>
</g>
</g>
<defs>
<clipPath id="clip0_907_1418">
<rect width="207" height="60" fill="white"/>
</clipPath>
</defs>
</svg>
