<svg width="16" height="16" viewBox="0 0 16 16" fill="none" xmlns="http://www.w3.org/2000/svg">
<g id="vuesax/linear/broom">
<g id="broom">
<path id="Vector" d="M6.57988 3.78003L4.29988 5.1667L3.25988 3.46004C2.87988 2.83337 3.07988 2.00671 3.70655 1.62671C4.33321 1.24671 5.15988 1.44669 5.53988 2.07336L6.57988 3.78003Z" stroke="#0669FF" stroke-linecap="round" stroke-linejoin="round"/>
<path id="Vector_2" d="M7.88008 6.10669L5.77341 7.38671C4.54674 8.13338 4.17341 9.64004 4.76674 10.84L6.13341 13.6267C6.57341 14.5267 7.64008 14.84 8.49341 14.3134L12.7801 11.7067C13.6401 11.1867 13.8467 10.1 13.2534 9.29337L11.4067 6.80004C10.6067 5.72004 9.10675 5.36002 7.88008 6.10669Z" stroke="#0669FF" stroke-linecap="round" stroke-linejoin="round"/>
<path id="Vector_3" d="M7.17079 3.3986L3.75439 5.479L5.14133 7.7566L8.55773 5.6762L7.17079 3.3986Z" stroke="#0669FF" stroke-linecap="round" stroke-linejoin="round"/>
<path id="Vector_4" d="M9.54004 11.2067L10.64 13.0133" stroke="#0669FF" stroke-linecap="round" stroke-linejoin="round"/>
<path id="Vector_5" d="M7.8335 12.2467L8.93349 14.0534" stroke="#0669FF" stroke-linecap="round" stroke-linejoin="round"/>
<path id="Vector_6" d="M11.2466 10.1666L12.3466 11.9733" stroke="#0669FF" stroke-linecap="round" stroke-linejoin="round"/>
</g>
</g>
</svg>
