<svg width="249" height="32" viewBox="0 0 249 32" fill="none" xmlns="http://www.w3.org/2000/svg">
<g id="&#208;&#155;&#208;&#190;&#208;&#179;&#208;&#190;" clip-path="url(#clip0_907_1203)">
<path id="Vector" d="M6.88818 27.161L0.356781 4.68298H4.28183L8.73438 20.9171L13.1714 4.7142L17.0964 4.68298L21.549 20.9171L25.986 4.68298H29.911L23.3951 27.161H19.7028L15.1262 11.1766L10.5806 27.161H6.88818Z" fill="black" fill-opacity="0.9"/>
<path id="Vector_2" d="M37.9943 27.6292C36.3188 27.6292 34.8553 27.2494 33.6038 26.4897C32.3524 25.7301 31.3801 24.6842 30.6872 23.3522C30.0046 22.0097 29.6633 20.4696 29.6633 18.7317C29.6633 16.9625 30.0149 15.412 30.7182 14.08C31.4216 12.7479 32.3989 11.7073 33.6504 10.958C34.9018 10.2087 36.3498 9.83411 37.9943 9.83411C39.6801 9.83411 41.1488 10.214 42.4003 10.9736C43.6517 11.7333 44.624 12.7844 45.3169 14.1268C46.0098 15.4588 46.3564 16.9938 46.3564 18.7317C46.3564 20.48 46.0047 22.0253 45.3014 23.3678C44.6085 24.6998 43.6362 25.7457 42.3848 26.5053C41.1333 27.2546 39.6698 27.6292 37.9943 27.6292ZM37.9943 24.1014C39.4836 24.1014 40.5903 23.6019 41.3143 22.6029C42.0383 21.6039 42.4003 20.3135 42.4003 18.7317C42.4003 17.0979 42.0331 15.797 41.2988 14.8292C40.5644 13.851 39.4629 13.3619 37.9943 13.3619C36.9911 13.3619 36.1636 13.5908 35.5121 14.0487C34.8708 14.4962 34.395 15.1258 34.0848 15.9375C33.7745 16.7388 33.6193 17.6702 33.6193 18.7317C33.6193 20.3655 33.9865 21.6715 34.7208 22.6497C35.4655 23.6175 36.5567 24.1014 37.9943 24.1014Z" fill="black" fill-opacity="0.9"/>
<path id="Vector_3" d="M49.7746 27.161V10.3025H53.079V14.4078L52.6757 13.8771C52.8825 13.3152 53.1565 12.8053 53.4979 12.3474C53.8496 11.8791 54.2684 11.4941 54.7546 11.1922C55.1682 10.9113 55.6234 10.6927 56.1198 10.5366C56.6266 10.3702 57.1437 10.2713 57.6712 10.24C58.1987 10.1984 58.7106 10.2192 59.207 10.3025V13.8147C58.7106 13.669 58.1365 13.6221 57.485 13.6742C56.8438 13.7263 56.2646 13.9083 55.7474 14.2205C55.2303 14.5015 54.8062 14.8605 54.4752 15.2976C54.1546 15.7347 53.9168 16.2342 53.7617 16.7961C53.6065 17.3477 53.5289 17.946 53.5289 18.5913V27.161H49.7746Z" fill="black" fill-opacity="0.9"/>
<path id="Vector_4" d="M62.1365 27.161L62.1675 4.68298H65.953V18.4196L72.081 10.3025H76.7507L70.2503 18.7318L77.3092 27.161H72.3602L65.953 19.044V27.161H62.1365Z" fill="black" fill-opacity="0.9"/>
<path id="Vector_5" fill-rule="evenodd" clip-rule="evenodd" d="M100.13 3.90247C93.4153 3.90247 87.9777 9.374 87.9777 16.1301C87.9777 22.8862 93.4153 28.3577 100.13 28.3577H106.982C113.697 28.3577 119.134 22.8862 119.134 16.1301C119.134 9.374 113.697 3.90247 106.982 3.90247H100.13ZM84.8749 16.1301C84.8749 7.64979 91.7018 0.780518 100.13 0.780518H106.982C115.41 0.780518 122.237 7.64979 122.237 16.1301C122.237 24.6105 115.41 31.4797 106.982 31.4797H100.13C91.7018 31.4797 84.8749 24.6105 84.8749 16.1301Z" fill="black" fill-opacity="0.9"/>
<path id="Vector_6" fill-rule="evenodd" clip-rule="evenodd" d="M100.13 10.9269C97.2023 10.9269 94.8294 13.3147 94.8294 16.2602C94.8294 19.2058 97.2023 21.5936 100.13 21.5936C103.057 21.5936 105.431 19.2058 105.431 16.2602C105.431 13.3147 103.057 10.9269 100.13 10.9269ZM91.7266 16.2602C91.7266 11.5905 95.4888 7.80493 100.13 7.80493C104.771 7.80493 108.534 11.5905 108.534 16.2602C108.534 20.9299 104.771 24.7155 100.13 24.7155C95.4888 24.7155 91.7266 20.9299 91.7266 16.2602Z" fill="#0669FF"/>
<path id="Vector_7" d="M132.49 26.8488V4.37073H141.348C142.859 4.37073 144.094 4.67772 145.056 5.2917C146.028 5.89528 146.747 6.67056 147.213 7.61756C147.688 8.56452 147.926 9.54279 147.926 10.5522C147.926 11.7906 147.631 12.8416 147.042 13.7054C146.462 14.5691 145.671 15.1518 144.668 15.4537V14.6732C146.075 14.9957 147.14 15.667 147.864 16.6868C148.599 17.7067 148.966 18.867 148.966 20.1678C148.966 21.4999 148.712 22.6654 148.205 23.6644C147.699 24.6634 146.943 25.4439 145.94 26.0058C144.947 26.5678 143.716 26.8488 142.248 26.8488H132.49ZM136.275 23.3054H141.783C142.434 23.3054 143.018 23.1753 143.536 22.9151C144.053 22.6445 144.456 22.2699 144.746 21.7912C145.046 21.3021 145.196 20.7245 145.196 20.0585C145.196 19.455 145.066 18.9138 144.808 18.4351C144.55 17.9564 144.172 17.5766 143.675 17.2956C143.179 17.0042 142.584 16.8585 141.891 16.8585H136.275V23.3054ZM136.275 13.3463H141.302C141.839 13.3463 142.32 13.2423 142.744 13.0341C143.169 12.826 143.505 12.519 143.753 12.1132C144.001 11.7073 144.125 11.2078 144.125 10.6146C144.125 9.83414 143.877 9.18376 143.381 8.66341C142.884 8.14306 142.191 7.88292 141.302 7.88292H136.275V13.3463Z" fill="black" fill-opacity="0.9"/>
<path id="Vector_8" d="M156.749 27.3171C155.539 27.3171 154.515 27.0882 153.677 26.6303C152.839 26.162 152.203 25.5428 151.769 24.7727C151.345 24.0026 151.133 23.1545 151.133 22.2283C151.133 21.4166 151.268 20.6882 151.536 20.0429C151.805 19.3873 152.219 18.8254 152.777 18.3571C153.336 17.8784 154.06 17.4882 154.949 17.1864C155.622 16.9678 156.408 16.7701 157.308 16.5932C158.218 16.4163 159.2 16.255 160.255 16.1093C161.321 15.9532 162.433 15.7867 163.591 15.6098L162.256 16.3747C162.267 15.2092 162.008 14.3506 161.481 13.799C160.953 13.2475 160.064 12.9717 158.812 12.9717C158.058 12.9717 157.328 13.1487 156.625 13.5025C155.922 13.8563 155.43 14.465 155.151 15.3288L151.738 14.2517C152.152 12.826 152.938 11.6813 154.096 10.8176C155.265 9.95382 156.837 9.52197 158.812 9.52197C160.302 9.52197 161.61 9.7665 162.737 10.2556C163.875 10.7448 164.719 11.546 165.266 12.6595C165.566 13.2527 165.747 13.8615 165.809 14.4859C165.871 15.0999 165.902 15.7711 165.902 16.4995V26.8488H162.629V23.1961L163.172 23.7893C162.417 25.0069 161.533 25.9018 160.519 26.4742C159.516 27.0361 158.259 27.3171 156.749 27.3171ZM157.494 24.32C158.342 24.32 159.066 24.1692 159.666 23.8673C160.266 23.5655 160.742 23.1961 161.093 22.759C161.455 22.322 161.698 21.9109 161.822 21.5259C162.019 21.0472 162.128 20.5009 162.148 19.8869C162.179 19.2625 162.194 18.7577 162.194 18.3727L163.342 18.7161C162.215 18.8931 161.248 19.0492 160.441 19.1844C159.635 19.3197 158.942 19.4498 158.362 19.5747C157.784 19.6892 157.272 19.8192 156.827 19.9649C156.392 20.121 156.025 20.3031 155.725 20.5112C155.426 20.7194 155.193 20.9587 155.027 21.2293C154.872 21.4999 154.794 21.8172 154.794 22.1815C154.794 22.5977 154.898 22.9672 155.105 23.2898C155.312 23.602 155.612 23.8517 156.004 24.039C156.408 24.2264 156.904 24.32 157.494 24.32Z" fill="black" fill-opacity="0.9"/>
<path id="Vector_9" d="M170.252 26.8488V3.90247H173.99V26.8488H170.252Z" fill="black" fill-opacity="0.9"/>
<path id="Vector_10" d="M183.323 27.3171C182.113 27.3171 181.089 27.0882 180.251 26.6303C179.413 26.162 178.777 25.5428 178.343 24.7727C177.919 24.0026 177.707 23.1545 177.707 22.2283C177.707 21.4166 177.842 20.6882 178.11 20.0429C178.379 19.3873 178.793 18.8254 179.351 18.3571C179.91 17.8784 180.634 17.4882 181.523 17.1864C182.196 16.9678 182.982 16.7701 183.881 16.5932C184.792 16.4163 185.774 16.255 186.829 16.1093C187.895 15.9532 189.006 15.7867 190.165 15.6098L188.83 16.3747C188.841 15.2092 188.582 14.3506 188.055 13.799C187.527 13.2475 186.638 12.9717 185.386 12.9717C184.632 12.9717 183.902 13.1487 183.199 13.5025C182.496 13.8563 182.004 14.465 181.725 15.3288L178.312 14.2517C178.726 12.826 179.512 11.6813 180.67 10.8176C181.839 9.95382 183.411 9.52197 185.386 9.52197C186.876 9.52197 188.184 9.7665 189.311 10.2556C190.449 10.7448 191.292 11.546 191.84 12.6595C192.14 13.2527 192.321 13.8615 192.383 14.4859C192.445 15.0999 192.476 15.7711 192.476 16.4995V26.8488H189.203V23.1961L189.746 23.7893C188.991 25.0069 188.107 25.9018 187.093 26.4742C186.09 27.0361 184.833 27.3171 183.323 27.3171ZM184.068 24.32C184.916 24.32 185.64 24.1692 186.24 23.8673C186.84 23.5655 187.315 23.1961 187.667 22.759C188.029 22.322 188.272 21.9109 188.396 21.5259C188.593 21.0472 188.702 20.5009 188.722 19.8869C188.753 19.2625 188.768 18.7577 188.768 18.3727L189.916 18.7161C188.789 18.8931 187.822 19.0492 187.015 19.1844C186.209 19.3197 185.516 19.4498 184.936 19.5747C184.358 19.6892 183.846 19.8192 183.401 19.9649C182.966 20.121 182.599 20.3031 182.299 20.5112C182 20.7194 181.767 20.9587 181.601 21.2293C181.446 21.4999 181.368 21.8172 181.368 22.1815C181.368 22.5977 181.472 22.9672 181.678 23.2898C181.886 23.602 182.186 23.8517 182.578 24.039C182.982 24.2264 183.478 24.32 184.068 24.32Z" fill="black" fill-opacity="0.9"/>
<path id="Vector_11" d="M208.104 26.8488V18.7317C208.104 18.201 208.068 17.613 207.996 16.9678C207.924 16.3226 207.753 15.7034 207.484 15.1102C207.225 14.5067 206.832 14.0123 206.305 13.6273C205.787 13.2423 205.084 13.0498 204.195 13.0498C203.719 13.0498 203.248 13.1278 202.783 13.2839C202.318 13.44 201.893 13.7106 201.511 14.0956C201.138 14.4702 200.838 14.9906 200.611 15.6566C200.384 16.3122 200.27 17.1551 200.27 18.1854L198.051 17.2332C198.051 15.7971 198.325 14.4962 198.873 13.3307C199.432 12.1652 200.249 11.239 201.325 10.5522C202.401 9.85499 203.724 9.50635 205.296 9.50635C206.537 9.50635 207.561 9.7145 208.368 10.1307C209.175 10.547 209.816 11.0777 210.292 11.7229C210.767 12.3682 211.119 13.055 211.347 13.7834C211.574 14.5118 211.719 15.2039 211.781 15.8595C211.853 16.5047 211.89 17.0302 211.89 17.4361V26.8488H208.104ZM196.484 26.8488V9.99025H199.82V15.2195H200.27V26.8488H196.484Z" fill="black" fill-opacity="0.9"/>
<path id="Vector_12" d="M222.942 27.3171C221.214 27.3171 219.741 26.9321 218.52 26.162C217.299 25.3815 216.364 24.32 215.712 22.9776C215.071 21.6351 214.745 20.1158 214.735 18.4195C214.745 16.6921 215.081 15.1623 215.743 13.8303C216.415 12.4878 217.367 11.4367 218.598 10.6771C219.828 9.90699 221.292 9.52197 222.988 9.52197C224.891 9.52197 226.499 10.0059 227.813 10.9737C229.137 11.9311 230.001 13.2423 230.404 14.9073L226.681 15.922C226.391 15.0166 225.91 14.3142 225.238 13.8147C224.565 13.3048 223.8 13.0498 222.942 13.0498C221.969 13.0498 221.168 13.2839 220.537 13.7522C219.906 14.2101 219.44 14.8449 219.141 15.6566C218.841 16.4683 218.691 17.3893 218.691 18.4195C218.691 20.0221 219.048 21.3177 219.762 22.3064C220.475 23.295 221.535 23.7893 222.942 23.7893C223.935 23.7893 224.715 23.5604 225.284 23.1025C225.863 22.6446 226.298 21.9838 226.588 21.12L230.404 21.9786C229.887 23.6956 228.981 25.0172 227.689 25.9434C226.396 26.8592 224.814 27.3171 222.942 27.3171Z" fill="black" fill-opacity="0.9"/>
<path id="Vector_13" d="M240.675 27.3171C238.979 27.3171 237.49 26.9477 236.207 26.2088C234.925 25.4699 233.922 24.4449 233.197 23.1337C232.484 21.8225 232.127 20.3135 232.127 18.6069C232.127 16.7649 232.479 15.1675 233.182 13.8147C233.885 12.4514 234.863 11.3951 236.114 10.6459C237.366 9.89661 238.813 9.52197 240.458 9.52197C242.196 9.52197 243.669 9.93306 244.879 10.7551C246.1 11.5669 247.005 12.7167 247.594 14.2049C248.184 15.6931 248.407 17.4465 248.262 19.4654H244.554V18.0917C244.544 16.2602 244.223 14.9229 243.592 14.08C242.961 13.2371 241.968 12.8156 240.613 12.8156C239.083 12.8156 237.945 13.2943 237.2 14.2517C236.455 15.1987 236.083 16.588 236.083 18.4195C236.083 20.1262 236.455 21.4478 237.2 22.3844C237.945 23.321 239.031 23.7893 240.458 23.7893C241.379 23.7893 242.17 23.5864 242.832 23.1805C243.504 22.7643 244.022 22.1659 244.383 21.3854L248.075 22.5093C247.435 24.0287 246.442 25.2098 245.097 26.0527C243.762 26.8956 242.289 27.3171 240.675 27.3171ZM234.904 19.4654V16.6244H246.431V19.4654H234.904Z" fill="black" fill-opacity="0.9"/>
</g>
<defs>
<clipPath id="clip0_907_1203">
<rect width="249" height="32" fill="white"/>
</clipPath>
</defs>
</svg>
