<svg width="52" height="52" viewBox="0 0 52 52" fill="none" xmlns="http://www.w3.org/2000/svg">
<g id="Frame">
<rect width="52" height="52" rx="26" fill="#0669FF"/>
<path id="Vector" d="M27.5095 39.1572C27.0127 39.6305 26.2261 39.6113 25.7528 39.1144C25.2796 38.6176 25.2987 37.831 25.7955 37.3577L36.152 27.4926H11.7425C11.0563 27.4926 10.5 26.9362 10.5 26.25C10.5 25.5638 11.0563 25.0075 11.7425 25.0075H36.1522L25.7955 15.1422C25.2987 14.6689 25.2796 13.8824 25.7528 13.3855C26.2261 12.8887 27.0127 12.8695 27.5095 13.3428L39.8001 25.0504C40.0799 25.317 40.2456 25.6569 40.297 26.0105C40.312 26.088 40.32 26.1682 40.32 26.25C40.32 26.3322 40.312 26.4124 40.2968 26.4901C40.2454 26.8435 40.0798 27.1832 39.8001 27.4496L27.5095 39.1572Z" fill="white"/>
</g>
</svg>
