<svg width="16" height="16" viewBox="0 0 16 16" fill="none" xmlns="http://www.w3.org/2000/svg">
<g id="vuesax/linear/note-2">
<g id="note-2">
<path id="Vector" d="M14.4403 6.95996L13.7869 9.74663C13.2269 12.1533 12.1203 13.1266 10.0403 12.9266C9.70695 12.9 9.34695 12.84 8.96028 12.7466L7.84028 12.48C5.06028 11.82 4.20028 10.4466 4.85362 7.65997L5.50695 4.86663C5.64028 4.29996 5.80028 3.80663 6.00028 3.39996C6.78028 1.78663 8.10695 1.3533 10.3336 1.87996L11.4469 2.13996C14.2403 2.7933 15.0936 4.1733 14.4403 6.95996Z" stroke="#0669FF" stroke-linecap="round" stroke-linejoin="round"/>
<path id="Vector_2" d="M10.0397 12.9267C9.62641 13.2067 9.10641 13.44 8.47307 13.6467L7.41974 13.9934C4.77307 14.8467 3.37974 14.1334 2.51974 11.4867L1.66641 8.85336C0.813072 6.20669 1.51974 4.80669 4.16641 3.95336L5.21974 3.60669C5.49307 3.52002 5.75307 3.44669 5.99974 3.40002C5.79974 3.80669 5.63974 4.30002 5.50641 4.86669L4.85307 7.66002C4.19974 10.4467 5.05974 11.82 7.83974 12.48L8.95974 12.7467C9.34641 12.84 9.70641 12.9 10.0397 12.9267Z" stroke="#0669FF" stroke-linecap="round" stroke-linejoin="round"/>
<path id="Vector_3" d="M8.42676 5.68665L11.6601 6.50665" stroke="#0669FF" stroke-linecap="round" stroke-linejoin="round"/>
<path id="Vector_4" d="M7.77344 8.2666L9.70677 8.75994" stroke="#0669FF" stroke-linecap="round" stroke-linejoin="round"/>
</g>
</g>
</svg>
