<svg width="240" height="53" viewBox="0 0 240 53" fill="none" xmlns="http://www.w3.org/2000/svg">
<g id="Frame" clip-path="url(#clip0_907_1396)">
<path id="Vector" fill-rule="evenodd" clip-rule="evenodd" d="M28.8514 0.144576C23.4559 -0.42881 18.0167 0.697815 13.2816 3.36959C8.5465 6.04137 4.74785 10.1271 2.40781 15.0653C0.067763 20.0035 -0.698802 25.5516 0.213477 30.9472C1.12576 36.3427 3.6721 41.3207 7.50249 45.197C11.3329 49.0733 16.2593 51.6576 21.6046 52.5947C26.9499 53.5317 32.4517 52.7755 37.3537 50.43C42.2557 48.0845 46.3174 44.2649 48.9803 39.4961C51.6433 34.7273 52.7768 29.2435 52.2252 23.7984C51.6181 17.7458 48.9623 12.0891 44.705 7.78083C40.4477 3.47251 34.849 0.775732 28.8514 0.144576ZM28.0005 40.5127C25.0986 40.9054 22.1477 40.371 19.5624 38.9844C16.9772 37.5978 14.8876 35.4288 13.5874 32.7822C12.2871 30.1356 11.8416 27.1445 12.3133 24.2293C12.7851 21.3141 14.1505 18.6213 16.2176 16.5294C18.2846 14.4374 20.9495 13.0516 23.8377 12.5665C26.7258 12.0814 29.692 12.5215 32.3194 13.825C34.9467 15.1285 37.1032 17.2298 38.4857 19.8336C39.8682 22.4374 40.4072 25.4128 40.027 28.3416C39.628 31.4222 38.2335 34.2842 36.0594 36.4844C33.8852 38.6847 31.0528 40.1005 28.0005 40.5127ZM66.271 1.19269C65.3602 1.19489 64.4613 1.40191 63.6398 1.7987C62.8183 2.19549 62.0948 2.77206 61.5219 3.48646C60.9491 4.20085 60.5413 5.0351 60.3283 5.9285C60.1153 6.8219 60.1024 7.75198 60.2905 8.65105C60.8667 11.5638 63.5634 13.5539 66.5011 13.5539H83.5491L57.0185 48.9746C56.8223 49.2361 56.7022 49.5476 56.6716 49.8741C56.641 50.2006 56.7011 50.5293 56.8453 50.8232C56.9895 51.1172 57.2119 51.3648 57.4878 51.5384C57.7636 51.7119 58.082 51.8045 58.407 51.8058H100.023C102.959 51.8058 105.657 49.8161 106.234 46.9029C106.422 46.004 106.409 45.0741 106.196 44.1808C105.983 43.2875 105.576 42.4532 105.003 41.7388C104.431 41.0244 103.707 40.4476 102.886 40.0506C102.065 39.6536 101.166 39.4462 100.256 39.4436H79.4838L105.994 4.05036C106.192 3.78633 106.313 3.47182 106.344 3.14212C106.375 2.81242 106.314 2.48057 106.169 2.18381C106.023 1.88705 105.798 1.63712 105.52 1.46205C105.241 1.28698 104.919 1.19371 104.591 1.19269H66.271ZM232.565 1.33527C231.188 1.66579 229.963 2.46079 229.094 3.58881C228.225 4.71684 227.763 6.11033 227.786 7.5389V28.1199L194.729 1.58142C194.47 1.37382 194.158 1.24427 193.829 1.20767C193.5 1.17106 193.168 1.22889 192.87 1.37451C192.572 1.52012 192.321 1.7476 192.145 2.03078C191.97 2.31396 191.878 2.64133 191.878 2.97523V45.4706C191.856 46.8992 192.317 48.2927 193.187 49.4208C194.056 50.5488 195.281 51.3438 196.658 51.6742C197.553 51.8728 198.481 51.8663 199.372 51.655C200.264 51.4438 201.098 51.0332 201.811 50.4537C202.525 49.8741 203.1 49.1403 203.495 48.3065C203.89 47.4726 204.095 46.5599 204.093 45.6357V24.8765L237.15 51.4156C237.409 51.623 237.721 51.7525 238.05 51.7891C238.379 51.8256 238.711 51.7678 239.009 51.6223C239.307 51.4767 239.558 51.2493 239.733 50.9663C239.908 50.6832 240.001 50.356 240 50.0222V7.3718C240.001 6.44783 239.796 5.53541 239.401 4.70183C239.006 3.86824 238.431 3.13475 237.717 2.55543C237.004 1.97611 236.17 1.56573 235.279 1.35456C234.387 1.14338 233.46 1.13679 232.565 1.33527ZM146.496 12.3707C160.478 12.3707 170.925 19.8251 170.925 26.493C170.925 33.1609 160.478 40.6152 146.496 40.6152C132.514 40.6152 122.067 33.1609 122.067 26.493C122.067 19.8251 132.514 12.3707 146.496 12.3707ZM146.496 0.00999709C126.258 0.00999709 109.852 11.8669 109.852 26.493C109.852 41.119 126.258 52.976 146.496 52.976C166.734 52.976 183.14 41.119 183.14 26.493C183.14 11.8669 166.734 0.00999709 146.496 0.00999709Z" fill="black" fill-opacity="0.9"/>
</g>
<defs>
<clipPath id="clip0_907_1396">
<rect width="240" height="53" fill="white"/>
</clipPath>
</defs>
</svg>
