<svg width="64" height="64" viewBox="0 0 64 64" fill="none" xmlns="http://www.w3.org/2000/svg">
<g id="Play Button">
<rect width="64" height="64" rx="32" fill="#0669FF"/>
<g id="vuesax/linear/play-circle">
<g id="play-circle">
<path id="Vector" d="M31.92 58.6667C46.6476 58.6667 58.5867 46.7276 58.5867 32C58.5867 17.2724 46.6476 5.33334 31.92 5.33334C17.1924 5.33334 5.25333 17.2724 5.25333 32C5.25333 46.7276 17.1924 58.6667 31.92 58.6667Z" fill="#F5F5F5"/>
<path id="Vector_2" d="M23.3067 32.6133V28.16C23.3067 22.6133 27.2267 20.3467 32.0267 23.12L35.8933 25.36L39.76 27.6C44.56 30.3733 44.56 34.9067 39.76 37.68L35.8933 39.92L32.0267 42.16C27.2267 44.9333 23.3067 42.6667 23.3067 37.12V32.6133Z" fill="#0669FF"/>
</g>
</g>
</g>
</svg>
