<svg width="53" height="52" viewBox="0 0 53 52" fill="none" xmlns="http://www.w3.org/2000/svg">
<g id="Frame">
<rect x="0.5" width="52" height="52" rx="26" fill="#0669FF"/>
<rect x="0.5" width="52" height="52" rx="26" fill="#0669FF" fill-opacity="0.1"/>
<path id="Vector" d="M24.8105 39.1572C25.3073 39.6305 26.0939 39.6113 26.5672 39.1144C27.0404 38.6176 27.0213 37.831 26.5245 37.3577L16.168 27.4926H40.5775C41.2637 27.4926 41.82 26.9362 41.82 26.25C41.82 25.5638 41.2637 25.0075 40.5775 25.0075H16.1678L26.5245 15.1422C27.0213 14.6689 27.0404 13.8824 26.5672 13.3855C26.0939 12.8887 25.3073 12.8695 24.8105 13.3428L12.5198 25.0504C12.24 25.317 12.0744 25.6569 12.0231 26.0105C12.0079 26.088 12 26.1682 12 26.25C12 26.3322 12.008 26.4124 12.0232 26.4901C12.0746 26.8435 12.2402 27.1832 12.5198 27.4496L24.8105 39.1572Z" fill="white" fill-opacity="0.9"/>
</g>
</svg>
