<svg width="216" height="60" viewBox="0 0 216 60" fill="none" xmlns="http://www.w3.org/2000/svg">
<g id="&#208;&#161;&#208;&#177;&#208;&#181;&#209;&#128; &#208;&#187;&#208;&#190;&#208;&#179;&#208;&#190;">
<path id="Vector" d="M53.0091 11.6572C54.4148 13.4998 55.6049 15.5015 56.5551 17.6223L29.5992 37.7674L18.3336 30.608V21.9948L29.5992 29.1543L53.0091 11.6572Z" fill="black" fill-opacity="0.9"/>
<path id="Vector_2" d="M6.83658 29.9999C6.83658 29.6134 6.84588 29.2294 6.86447 28.8477L0.0371826 28.5085C0.0139447 29.0033 8.25046e-06 29.5028 8.25046e-06 30.0068C-0.00289657 33.9456 0.761274 37.8459 2.2487 41.4844C3.73612 45.123 5.91751 48.4279 8.66773 51.2097L13.5105 46.3025C11.3935 44.1649 9.71403 41.6242 8.56869 38.8264C7.42335 36.0286 6.83471 33.0289 6.83658 29.9999Z" fill="black" fill-opacity="0.9"/>
<path id="Vector_3" d="M29.5938 6.92898C29.9749 6.92898 30.3535 6.94312 30.73 6.96196L31.0716 0.0380445C30.5822 0.0144857 30.0895 0.0027078 29.5938 0.0027078C25.7069 -0.00209762 21.8576 0.771508 18.2665 2.2791C14.6755 3.7867 11.4136 5.9986 8.66806 8.78778L13.5108 13.6974C15.6194 11.5505 18.1258 9.84721 20.8859 8.68565C23.646 7.52408 26.6052 6.92707 29.5938 6.92898Z" fill="black" fill-opacity="0.9"/>
<path id="Vector_4" d="M29.5929 53.0712C29.2119 53.0712 28.8331 53.0712 28.4544 53.0405L28.1128 59.9621C28.6038 59.9872 29.0973 59.9999 29.5929 59.9999C33.4782 60.0039 37.3257 59.2298 40.9148 57.7218C44.504 56.2138 47.7638 54.0016 50.5072 51.2124L45.6737 46.3052C43.5647 48.451 41.0586 50.1533 38.2991 51.3144C35.5395 52.4756 32.5808 53.0726 29.5929 53.0712Z" fill="black" fill-opacity="0.9"/>
<path id="Vector_5" d="M42.4215 10.9549L48.1751 6.65539C42.9162 2.33816 36.3517 -0.0119842 29.5848 4.59571e-05V6.92867C34.167 6.92291 38.6429 8.32682 42.4215 10.9549Z" fill="black" fill-opacity="0.9"/>
<path id="Vector_6" d="M59.1852 29.9996C59.1889 28.1972 59.0334 26.3979 58.7204 24.6235L52.351 29.3824C52.351 29.5875 52.351 29.7924 52.351 29.9996C52.3526 33.2232 51.6861 36.4111 50.3948 39.3567C49.1033 42.3023 47.2156 44.9399 44.8544 47.0986L49.4486 52.2463C52.5184 49.4366 54.9715 46.0044 56.6488 42.172C58.3263 38.3395 59.1904 34.1924 59.1852 29.9996Z" fill="black" fill-opacity="0.9"/>
<path id="Vector_7" d="M29.5936 53.071C26.4137 53.0721 23.2691 52.3962 20.3632 51.087C17.4575 49.7778 14.8553 47.8644 12.7252 45.4709L7.65002 50.1262C10.421 53.2389 13.8064 55.7263 17.5867 57.4272C21.367 59.1281 25.4576 60.0045 29.5936 59.9996V53.071Z" fill="black" fill-opacity="0.9"/>
<path id="Vector_8" d="M14.3331 12.9005L9.74133 7.75293C6.67061 10.562 4.21659 13.9941 2.53841 17.8266C0.860254 21.659 -0.00457525 25.8063 1.82026e-05 29.9994H6.8366C6.83519 26.7761 7.5018 23.5882 8.79319 20.6426C10.0846 17.6971 11.972 15.0594 14.3331 12.9005Z" fill="black" fill-opacity="0.9"/>
<g id="Group">
<path id="Vector_9" d="M170.773 17.1564L179.24 10.9038H150.902V48.4764H179.24V42.2239H158.988V32.5996H176.264V26.347H158.988V17.1564H170.773Z" fill="black" fill-opacity="0.9"/>
<path id="Vector_10" d="M131.835 25.5408H121.996V17.1539H137.698L146.16 10.8823H113.915V48.455H130.794C140.257 48.455 145.688 44.156 145.688 36.6586C145.688 29.4861 140.769 25.5408 131.835 25.5408ZM130.43 42.2004H121.996V31.7895H130.43C135.548 31.7895 137.948 33.5342 137.948 36.995C137.948 40.4557 135.395 42.2004 130.43 42.2004Z" fill="black" fill-opacity="0.9"/>
<path id="Vector_11" d="M200.071 10.8984H184.645V48.4709H192.73V37.8273H200.071C209.912 37.8273 216 32.6366 216 24.3428C216 16.0492 209.912 10.8984 200.071 10.8984ZM199.9 31.57H192.73V17.1558H199.9C205.077 17.1558 207.933 19.7169 207.933 24.3657C207.933 29.0145 205.077 31.57 199.9 31.57Z" fill="black" fill-opacity="0.9"/>
<path id="Vector_12" d="M101.782 39.6041C99.6938 40.7377 97.3538 41.3247 94.9789 41.3108C87.8707 41.3108 82.7141 36.2243 82.7141 29.2202C82.7141 22.2159 87.8707 17.1184 94.9789 17.1184C97.5423 17.0748 100.052 17.8539 102.143 19.342L107.798 15.1672L107.416 14.8949C104.117 11.9876 99.7086 10.4478 94.663 10.4478C89.1902 10.4478 84.2278 12.2933 80.6847 15.6509C78.8932 17.3796 77.4765 19.46 76.5224 21.7621C75.5685 24.0642 75.0978 26.5386 75.1401 29.0311C75.1022 31.5489 75.5707 34.0486 76.5176 36.381C77.4646 38.7133 78.8705 40.8304 80.6515 42.606C84.2112 46.097 89.1626 48.0203 94.5964 48.0203C100.274 48.0203 105.237 46.0357 108.597 42.4226L103.534 38.6425L101.782 39.6041Z" fill="black" fill-opacity="0.9"/>
</g>
</g>
</svg>
