<svg width="48" height="48" viewBox="0 0 48 48" fill="none" xmlns="http://www.w3.org/2000/svg">
<path d="M18 44H30C40 44 44 40 44 30V18C44 8 40 4 30 4H18C8 4 4 8 4 18V30C4 40 8 44 18 44Z" stroke="#0669FF" stroke-width="2" stroke-linecap="round" stroke-linejoin="round"/>
<path d="M14 16.5C16 18.5 19.26 18.5 21.28 16.5" stroke="#0669FF" stroke-width="2" stroke-miterlimit="10" stroke-linecap="round" stroke-linejoin="round"/>
<path d="M26.72 16.5C28.72 18.5 31.98 18.5 34 16.5" stroke="#0669FF" stroke-width="2" stroke-miterlimit="10" stroke-linecap="round" stroke-linejoin="round"/>
<path d="M16.8 26H31.2C32.2 26 33 26.8 33 27.8C33 32.78 28.98 36.8 24 36.8C19.02 36.8 15 32.78 15 27.8C15 26.8 15.8 26 16.8 26Z" stroke="#0669FF" stroke-width="2" stroke-miterlimit="10" stroke-linecap="round" stroke-linejoin="round"/>
</svg>
