<svg width="240" height="60" viewBox="0 0 240 60" fill="none" xmlns="http://www.w3.org/2000/svg">
<g id="Frame" clip-path="url(#clip0_907_1424)">
<path id="Vector" d="M70.1619 28.0661L71.0847 25.2743L68.0319 25.3646C67.774 25.3646 65.8992 25.3144 64.0805 24.0679C64.216 24.0805 64.3515 24.098 64.4899 24.098C66.362 24.098 68.1728 23.0325 68.8988 21.5095L70.2125 18.7577C68.5664 18.7779 67.0613 18.5819 67.0613 18.5819C67.0479 18.5793 65.862 18.4361 64.4899 17.1116C63.5059 16.1618 62.2881 15.659 60.9691 15.659C60.3922 15.659 59.8762 15.757 59.4322 15.8903C59.5013 15.6666 59.5677 15.4404 59.6052 15.2066C60.0251 12.6307 58.2702 10.6655 58.2702 10.6681L55.9753 7.98165L54.5527 11.138C54.5473 11.1481 54.1883 11.887 53.5448 12.2488C53.3507 11.3215 52.8748 10.2786 51.8563 9.28085C49.9363 7.40104 47.599 7.12206 46.3757 7.12206C45.8092 7.12206 45.4052 7.17991 45.3066 7.19495L42.536 7.71026C42.6954 7.12471 43.0358 6.1068 43.6581 5.18954L45.1872 2.93788L41.3393 3.35254L40.1134 0.892139L37.7415 2.04821L35.5477 0L33.3591 2.04821L30.9792 0.892139L29.7559 3.35254L25.9109 2.93788L27.4424 5.18954C28.0648 6.1068 28.4052 7.12206 28.5621 7.70762L25.9187 7.21511L25.8284 7.20008C25.6954 7.17991 25.294 7.12206 24.7249 7.12206C23.5016 7.12206 21.1643 7.40353 19.2495 9.28085C18.2284 10.2761 17.7525 11.3215 17.5558 12.2488C16.9176 11.892 16.5612 11.1631 16.5612 11.1631L15.1359 7.98908L12.8039 10.6933C12.5193 11.0425 11.1127 12.8897 11.4955 15.2118C11.5355 15.443 11.5993 15.6691 11.6685 15.8929C11.227 15.7596 10.7111 15.6616 10.1342 15.6616C8.81516 15.6616 7.59731 16.1642 6.61076 17.1143C5.2438 18.4336 4.06315 18.5819 4.07391 18.5819C4.07391 18.5819 2.8267 18.7929 0.896183 18.7601L2.2018 21.5121C2.92784 23.0376 4.74124 24.1006 6.61076 24.1006C6.7517 24.1006 6.88724 24.0829 7.02557 24.0704C5.21201 25.3169 3.33727 25.3671 3.11118 25.3696L0 25.2743L0.941364 28.0636C1.41474 29.5013 2.99683 31.8836 6.02843 32.1399C5.69859 33.4467 4.96733 34.9094 3.36125 35.5401L1.04511 36.4422L2.30814 38.5206C3.02082 39.6415 4.69345 40.9533 7.07596 40.9533C7.59193 40.9508 8.0891 40.903 8.56787 40.8076C8.69021 41.3203 8.84435 41.833 9.02526 42.3405C9.73515 44.3359 9.12361 45.7281 9.11562 45.7433L7.97215 48.0075L10.525 48.6434C10.557 48.6534 11.328 48.8519 12.2934 48.8519C12.7322 48.8519 13.1495 48.8092 13.5432 48.7214C13.8409 48.6559 14.1256 48.568 14.3993 48.4624C14.7291 49.0228 15.1306 49.533 15.5987 49.9902C17.2341 51.5761 19.5503 52.3802 22.4859 52.3802H22.4965L24.592 52.3551L20.2628 54.054L23.5496 55.5544C24.7435 56.1048 26.1608 56.7555 27.6021 57.2531L27.1926 58.3138L28.3254 58.8013C28.4263 58.8439 30.6042 59.7663 34.2262 59.9622C34.2262 59.9622 35.101 60 35.5822 60C36.0635 60 36.9277 59.9599 36.9277 59.9599C40.5257 59.7587 42.6874 58.8465 42.7886 58.8013L43.9239 58.3112L43.5091 57.2482C44.993 56.7355 46.4608 56.0594 47.6042 55.5317L50.8298 54.0515L46.5139 52.3503L48.6173 52.3754C51.5558 52.3754 53.8746 51.5711 55.5072 49.9829C55.9726 49.528 56.3742 49.0179 56.7066 48.4574C56.9805 48.563 57.2676 48.6509 57.5654 48.7163C57.9563 48.8041 58.3739 48.847 58.8126 48.847C59.7618 48.847 60.5411 48.6485 60.5623 48.6434L63.1258 48.0026L62.0089 45.781C61.9823 45.7231 61.3707 44.3334 62.0807 42.3355C62.2615 41.8254 62.413 41.3128 62.5354 40.8025C63.0168 40.898 63.5193 40.9482 64.0379 40.9482C67.0718 40.9482 68.5264 38.9302 68.8084 38.493L70.0582 36.4374L67.742 35.5376C66.1333 34.9067 65.4047 33.4416 65.0776 32.1375C68.0664 31.8961 69.6726 29.5138 70.1619 28.0661ZM28.764 8.67016L28.7323 8.67776L28.7589 8.64505L28.764 8.67016Z" fill="white"/>
<path id="Vector_2" d="M35.5503 8.54712C33.0986 8.54959 31.2612 9.30853 30.8596 10.2007L35.5503 11.9499L40.2411 10.2007C39.8422 9.30853 38.0048 8.54959 35.5503 8.54712Z" fill="white"/>
<path id="Vector_3" d="M35.5979 54.8507H35.5925H35.5526H35.5074H35.5047C34.0182 54.8608 31.9733 54.5717 30.9868 54.3003L29.8007 57.3335C30.5826 57.5975 33.2312 58.1 35.5526 58.1C37.8687 58.1 40.5199 57.595 41.299 57.3335L40.1156 54.3003C39.1265 54.5742 37.0842 54.8608 35.5979 54.8507Z" fill="white"/>
<path id="Vector_4" d="M44.5731 51.835C43.6903 52.3075 41.7198 53.0161 40.5737 53.3453L41.5363 55.8508C43.3099 55.3933 44.7724 54.8582 45.9825 54.2852L43.9853 53.6568L44.5731 51.835Z" fill="white"/>
<path id="Vector_5" d="M26.5305 51.835L27.1208 53.6568L25.1212 54.2852C26.3284 54.8582 27.7989 55.3933 29.5646 55.8508L30.5272 53.3453C29.3863 53.0161 27.4132 52.3048 26.5305 51.835Z" fill="white"/>
<path id="Vector_6" d="M35.5506 5.64672C37.3987 5.64672 39.2123 6.06387 40.6056 6.79784C40.7333 6.39309 40.9114 5.90305 41.1534 5.39038L40.627 5.45071L40.0738 5.50607L39.8397 5.03108L39.1351 3.62379L37.8507 4.25694L37.3509 4.49824L36.952 4.12638L35.5559 2.81958L34.1625 4.12638L33.7636 4.49824L33.2638 4.25694L31.9714 3.62379L31.2746 5.03108L31.0354 5.50607L30.4822 5.45071L29.9557 5.39038C30.1978 5.90553 30.3733 6.39309 30.5035 6.79784C31.8996 6.06387 33.7078 5.64672 35.5506 5.64672Z" fill="white"/>
<path id="Vector_7" d="M63.7668 21.9116C64.0063 21.9895 64.2507 22.0246 64.4928 22.0246C65.5377 22.0246 66.5483 21.3864 66.8966 20.655C66.8966 20.655 64.9794 20.5445 62.9185 18.5666C62.2618 17.9257 61.5677 17.7349 60.9721 17.7349C60.0466 17.7349 59.3525 18.1972 59.3525 18.1972C61.8417 19.4487 62.3494 21.4592 63.7668 21.9116Z" fill="white"/>
<path id="Vector_8" d="M6.60924 22.0246C6.85114 22.0246 7.09582 21.9895 7.32991 21.9116C8.75246 21.4592 9.26304 19.4487 11.7521 18.1972C11.7521 18.1972 11.0552 17.7349 10.1352 17.7349C9.53691 17.7349 8.84284 17.9257 8.18334 18.5666C6.12527 20.5445 4.20795 20.655 4.20795 20.655C4.55099 21.3864 5.56413 22.0246 6.60924 22.0246Z" fill="white"/>
<path id="Vector_9" d="M64.4427 30.0818C64.4853 30.0842 64.5225 30.0842 64.5677 30.0842C67.1763 30.0842 68.0619 27.4428 68.0619 27.4428H68.0113C67.5328 27.4428 63.6529 27.3374 60.9113 24.0427C59.1058 21.8766 57.6272 19.9716 54.7047 19.2226L54.4177 19.1748L54.3538 18.8984C54.274 18.4762 54.5799 18.0817 55.274 17.6544C59.3052 15.1591 56.5689 11.9774 56.5689 11.9774C56.5689 11.9774 55.4175 14.5232 52.8408 14.5232C52.7796 14.5232 52.7131 14.5206 52.6493 14.5206C52.3569 14.5056 52.075 14.4954 51.7903 14.4378L51.3144 14.3497C51.3144 14.3497 52.0484 12.4624 50.2773 10.7284C48.9424 9.41913 47.3177 9.198 46.379 9.198C45.9056 9.198 45.6051 9.25567 45.6051 9.25567C46.496 10.3564 47.1395 12.181 46.1105 13.3068C45.2224 14.2743 43.0524 14.3221 43.0524 15.7646C43.0524 16.3753 43.656 17.0891 44.7409 17.7298C48.0038 19.6724 51.2426 22.2483 52.5881 25.7014C54.2714 30.0088 52.3754 32.8663 49.6684 34.5048C49.6684 34.5048 50.5167 35.2436 51.748 35.3366C51.9978 35.3592 52.2426 35.3692 52.4712 35.3692C55.0692 35.3692 56.4121 34.2182 56.4121 34.2182C56.4121 34.2182 56.1912 35.8089 54.8377 37.2867C53.5907 38.6513 51.9526 39.4531 49.4556 39.4882C49.4556 39.4882 49.3758 40.5838 50.4821 41.5313C51.1894 42.1294 52.8248 42.3254 52.8248 42.3254C52.8248 42.3254 49.7641 42.9109 49.4264 47.1833C49.2428 49.4977 48.618 50.3019 48.618 50.3019H48.674C55.7764 50.3019 55.593 44.5446 55.593 44.5446C55.593 44.5446 56.0875 46.2483 58.0687 46.6932C58.3079 46.7536 58.5633 46.7762 58.8079 46.7762C59.4462 46.7762 59.9992 46.6354 59.9992 46.6354C59.9992 46.6354 58.9622 44.5672 59.9912 41.6746C60.8448 39.2746 60.7066 37.4953 60.7066 37.4953C60.7066 37.4953 61.6638 38.8624 64.0359 38.8751H64.0597C66.0356 38.8751 66.897 37.4602 66.897 37.4602C62.1612 35.6029 62.6292 29.6068 62.6292 29.6068C62.6292 29.6068 63.2435 30.0389 64.4427 30.0818ZM63.0173 36.3442C61.0921 35.4472 59.8742 33.0648 59.5791 32.2052C59.2599 36.9298 56.8189 40.2094 53.9655 43.3658C52.4844 45.0018 51.9686 46.5926 51.9686 46.5926C51.9686 46.5926 52.2531 44.7908 53.5347 43.3232C56.1966 40.2998 58.7256 36.5378 58.9143 32.1877C59.0446 29.1518 58.2176 26.6891 56.9279 24.6611C57.6485 26.7746 57.5475 29.3629 55.0984 31.7779C55.0984 31.7779 59.9726 26.2567 53.1572 20.5973C50.4289 18.4437 47.4453 17.1142 45.9084 16.1718C51.4606 17.8832 54.1704 15.9983 54.1704 15.9983C52.3966 17.4508 50.1019 17.4257 48.6791 17.2172C49.0647 17.3957 49.4664 17.5816 49.8997 17.8002C54.5799 20.2028 58.7867 24.1558 59.5046 29.6319V29.5891C60.5948 34.9646 63.0173 36.3442 63.0173 36.3442Z" fill="white"/>
<path id="Vector_10" d="M18.2762 42.3254C18.2762 42.3254 19.9116 42.1319 20.619 41.5313C21.7224 40.5838 21.6455 39.4882 21.6455 39.4882C19.1459 39.4554 17.5104 38.6513 16.2554 37.2893C14.9123 35.8116 14.689 34.2207 14.689 34.2207C14.689 34.2207 16.0318 35.3718 18.6272 35.3718C18.8613 35.3718 19.1033 35.3617 19.3531 35.3391C20.5844 35.2461 21.4353 34.5072 21.4353 34.5072C18.7282 32.8687 16.8297 30.0088 18.5102 25.7014C19.8585 22.2508 23.0946 19.6724 26.3576 17.7298C27.4424 17.0891 28.046 16.3777 28.046 15.7646C28.046 14.3221 25.8787 14.2743 24.9905 13.3068C23.9616 12.181 24.6078 10.3539 25.4959 9.25567C25.4959 9.25567 25.2007 9.198 24.7246 9.198C23.7887 9.198 22.1639 9.41913 20.829 10.7284C19.0527 12.4624 19.7894 14.3497 19.7894 14.3497L19.3133 14.4378C19.0289 14.4954 18.7442 14.5056 18.4544 14.5206C18.388 14.5206 18.3294 14.5232 18.2656 14.5232C15.6836 14.5232 14.5375 11.9799 14.5375 11.9799C14.5375 11.9799 11.8012 15.1616 15.8298 17.6569C16.5239 18.0842 16.8271 18.4787 16.7473 18.9009L16.6833 19.1774L16.3909 19.2252C13.4738 19.9741 11.9927 21.8789 10.1871 24.0452C7.45077 27.3349 3.57635 27.4428 3.09255 27.4428H3.03918C3.03918 27.4428 3.92478 30.0842 6.53338 30.0842C6.57596 30.0842 6.61315 30.0842 6.65833 30.0818C7.85759 30.0414 8.4745 29.6068 8.4745 29.6068C8.4745 29.6068 8.93728 35.6003 4.20664 37.4602C4.20664 37.4602 5.06825 38.8751 7.04395 38.8751H7.06793C9.44245 38.8624 10.3972 37.4953 10.3972 37.4953C10.3972 37.4953 10.2589 39.2746 11.1099 41.6746C12.1388 44.5672 11.1071 46.6354 11.1071 46.6354C11.1071 46.6354 11.6602 46.7762 12.2958 46.7762C12.543 46.7762 12.7957 46.7536 13.0324 46.6932C15.0107 46.2483 15.508 44.5446 15.508 44.5446C15.508 44.5446 15.3272 50.3019 22.4299 50.3019H22.4802C22.4802 50.3019 21.8582 49.4977 21.6773 47.1833C21.337 42.9109 18.2762 42.3254 18.2762 42.3254ZM17.1356 43.3658C14.2823 40.2094 11.8438 36.9298 11.5219 32.2052C11.2268 33.0623 10.0142 35.4472 8.08907 36.3442C8.08907 36.3442 10.5088 34.9646 11.5965 29.5891V29.6319C12.3171 24.1584 16.5212 20.2028 21.2039 17.8002C21.6321 17.5791 22.0389 17.3932 22.4219 17.2172C20.9992 17.4257 18.7044 17.4508 16.9307 15.9983C16.9307 15.9983 19.6403 17.8832 25.19 16.1718C23.6532 17.1142 20.6721 18.4437 17.9438 20.5973C11.1257 26.2567 16.0026 31.7779 16.0026 31.7779C13.5509 29.3603 13.4526 26.7746 14.1732 24.6611C12.8809 26.6916 12.0565 29.1518 12.1894 32.1877C12.3755 36.5378 14.9043 40.2998 17.5609 43.3232C18.8454 44.7883 19.1352 46.5926 19.1352 46.5926C19.1352 46.5926 18.6138 45.0018 17.1356 43.3658Z" fill="white"/>
<path id="Vector_11" d="M30.2993 21.2761C30.4161 21.3941 30.5305 21.5224 30.6397 21.6504C30.6662 21.6807 30.69 21.7083 30.7166 21.7436C30.8178 21.8716 30.9215 22.0074 31.0199 22.1456C31.0411 22.1732 31.0625 22.2059 31.0863 22.2384C31.206 22.4094 31.3178 22.5854 31.4294 22.7664C32.4531 24.4374 34.0939 25.4352 35.5484 25.4377C37.0056 25.4352 38.6411 24.4374 39.6702 22.7664C39.7845 22.5803 39.8989 22.3994 40.0184 22.2311C40.037 22.2059 40.0558 22.1833 40.0716 22.1582C40.1727 22.0149 40.2791 21.8742 40.3908 21.7384C40.4146 21.7083 40.4359 21.6832 40.4572 21.6581C40.5716 21.5248 40.6885 21.3942 40.8083 21.2734C40.8294 21.2534 40.8453 21.2358 40.864 21.2208C41.3851 20.7157 42.0075 20.3311 42.8211 20.1176L42.4595 19.9191H42.4383L40.9969 19.1274L39.5159 18.3257L35.559 20.3613L35.5484 20.3537L35.5404 20.3613L31.5809 18.3257L30.1025 19.1248L28.6586 19.9164H28.6425L28.2756 20.1151C29.0919 20.3286 29.7115 20.7081 30.2354 21.2132C30.2592 21.2333 30.2752 21.2559 30.2993 21.2761ZM33.9475 21.1127H35.6228H37.2954V22.1983C36.902 21.7436 36.1362 21.8366 36.1362 21.8366V23.4022C36.1362 23.4022 36.1653 24.1712 36.4498 24.5053H35.6228H34.7932C35.083 24.1737 35.1097 23.4022 35.1097 23.4022V21.8366C35.1097 21.8366 34.3464 21.7436 33.9475 22.1983V21.1127Z" fill="white"/>
<path id="Vector_12" d="M35.2079 19.0061V12.6506L30.9266 11.2783L32.0567 17.438L35.2079 19.0061ZM34.2878 14.2113V15.2315L34.0804 15.141C34.0698 15.1335 33.7667 15.0681 33.2348 14.671C32.3573 14.0278 32.3414 13.4346 32.3414 13.4346L34.2878 14.2113Z" fill="white"/>
<path id="Vector_13" d="M39.0479 17.438L40.1728 11.2783L35.8942 12.6506V19.0061L39.0479 17.438ZM36.8143 14.2113L38.7606 13.4371C38.7606 13.4371 38.7449 14.0303 37.8646 14.6735C37.3355 15.0706 37.0296 15.1359 37.019 15.1435L36.8114 15.2339V14.2113H36.8143Z" fill="white"/>
<path id="Vector_14" d="M29.1529 33.7409C29.5705 33.884 30.0757 33.9142 30.3336 33.9142C30.3444 33.884 30.3575 33.8462 30.3709 33.8011C30.3947 33.7282 30.4161 33.6579 30.4322 33.5774C30.5039 33.2257 30.5305 32.8261 30.5357 32.5698C30.3601 32.4666 30.1129 32.2831 29.9748 32.0093C29.8152 31.6926 29.5891 31.5469 29.2566 31.5469C28.8259 31.5469 28.3633 31.7906 28.1664 31.9064C28.0097 32.7833 28.6929 33.58 29.1529 33.7409Z" fill="white"/>
<path id="Vector_15" d="M38.6217 30.3679C37.8267 31.1847 36.271 32.6072 36.1938 32.68L36.1008 32.7705L31.1841 32.6975C31.1813 33.1575 31.1015 33.5495 31.0245 33.836C31.0112 33.8838 30.998 33.934 30.9846 33.9843L36.8347 34.977C37.4437 34.5749 39.1189 33.4188 39.7678 32.9665C39.2944 32.3132 39.2492 31.539 39.3555 30.9938C39.0472 30.8053 38.8104 30.5942 38.6217 30.3679Z" fill="white"/>
<path id="Vector_16" d="M39.2896 24.7794C38.1566 25.8424 37.0691 26.2344 36.0986 26.3249C35.923 26.3425 35.7449 26.3524 35.5641 26.3524H35.5506H35.54C35.3593 26.3524 35.1784 26.3425 35.0028 26.3249C34.8327 26.3097 34.6547 26.2846 34.4766 26.247C34.4126 26.4856 34.3328 26.9857 34.5615 27.4582C34.7662 27.888 35.1838 28.2071 35.7927 28.4184L35.9974 28.4936L36.0002 28.7022C36.0002 28.765 36.048 30.1171 37.6089 30.4915C37.8642 30.2427 38.0955 30.0191 38.2658 29.833C37.9466 29.1244 38.114 28.4006 38.5768 28.0462C38.5556 28.1216 38.3535 29.896 39.8587 30.5542L40.1059 30.665L40.0314 30.9137C40.0073 30.9891 39.5049 32.7056 41.3264 33.3439L41.6482 33.4595L41.5045 33.7561C41.4727 33.8214 40.7574 35.3796 42.4407 36.2641H46.0916V33.5249C44.7941 33.374 44.2435 32.389 44.1026 31.6902C43.499 31.5922 43.031 31.346 42.7117 30.9439C41.9459 29.9914 42.6054 29.1194 42.6134 29.0716C42.6108 29.0792 42.6134 30.009 43.2197 30.582C43.5202 30.8584 43.8766 31.0721 44.4163 31.1199L44.6822 31.1425L44.7063 31.3989C44.7114 31.454 44.8578 32.7106 46.0942 32.9091L46.0916 27.315C46.0916 26.448 46.3602 25.576 46.682 24.7717H39.2896V24.7794Z" fill="white"/>
<path id="Vector_17" d="M29.4644 27.3419L29.3661 30.9056L29.794 30.9659L30.8418 27.5481L30.3101 26.4976L29.4644 27.3419Z" fill="white"/>
<path id="Vector_18" d="M41.0155 43.685C41.0475 43.685 41.0847 43.6901 41.1192 43.6976C41.7707 43.8736 41.9357 46.0951 43.0791 46.2936C43.1908 46.3163 43.2945 46.3213 43.3849 46.3213C43.7147 46.3213 43.9114 46.188 44.1241 45.9519C44.1241 45.9519 43.5497 45.0974 43.119 44.522C42.5473 43.768 42.1033 42.8556 41.0396 42.8556C41.0155 42.8556 40.9837 42.8556 40.9572 42.8584C40.6061 42.8759 40.3907 43.0366 40.3907 43.0366C39.9598 42.7804 39.5584 42.6924 39.194 42.6924C38.5267 42.6924 38.0082 42.9815 37.75 42.9815H37.7395L35.3621 42.7604C34.9899 42.7276 34.6974 42.3733 34.5911 42.2351C34.5644 42.1973 34.5512 42.1748 34.5512 42.1748C34.5512 42.1144 34.5512 42.0516 34.5459 41.9963C34.4661 40.1593 32.9611 39.3726 32.4265 39.36C32.4265 39.36 32.4903 39.0108 32.3441 38.8776L31.8202 39.4781L30.0997 38.6614L31.3256 40.016L30.2858 41.1191C30.1555 41.245 30.1715 41.4159 30.2247 41.4861L30.6741 41.8606L31.2432 41.5339C31.2724 41.5139 31.323 41.5088 31.3867 41.5088C31.5437 41.5088 31.7804 41.5464 31.993 41.5464C32.2244 41.5464 32.4265 41.4986 32.4504 41.2925C32.3787 41.9736 31.7113 43.1573 32.15 44.0871L32.4745 44.7884L30.3736 44.5018L29.3897 46.0725C29.0866 46.5953 29.0388 47.1606 29.3312 47.4673L29.6981 47.9021C29.6981 47.9021 30.2141 47.3843 30.3311 47.045L30.1635 46.8716C30.0226 46.7259 30.0306 46.5953 30.1158 46.437L30.7326 45.4693L33.2135 46.0223L33.3438 45.8111C33.5114 45.5473 33.7535 45.4668 34.0194 45.4668C34.1283 45.4668 34.2401 45.4794 34.357 45.497C34.8172 45.5825 35.575 45.698 36.3329 45.698C37.1651 45.698 37.9895 45.5574 38.4281 45.0925C39.327 46.3515 41.1485 46.5525 41.0049 47.1908L40.5263 49.3471C40.8428 49.3345 41.1485 49.3144 41.4383 49.2766L41.8931 47.0324C41.9437 46.7886 41.9914 46.4594 41.9914 46.4594C41.816 46.2911 41.3905 45.9343 41.1513 45.502C40.8294 44.9189 41.0049 44.6149 40.7044 43.8559C40.7151 43.861 40.8055 43.685 41.0155 43.685ZM31.7352 40.5336C31.6128 40.5311 31.525 40.4331 31.5303 40.3176C31.541 40.207 31.6394 40.119 31.759 40.129C31.8813 40.1341 31.9691 40.2346 31.9639 40.3453C31.9531 40.4558 31.8521 40.5413 31.7352 40.5336Z" fill="white"/>
<path id="Vector_19" d="M28.3476 45.7255C28.3476 45.7255 29.1692 45.4064 29.2436 45.1776L29.1346 44.9188C29.0575 44.7504 29.0681 44.5669 29.217 44.4665L30.1051 43.8859L31.589 44.1548C31.589 44.1548 31.3204 43.8381 31.3471 43.4134L29.9324 43.1294L28.5974 43.8984C28.0257 44.303 27.9831 44.9639 28.172 45.3559L28.3476 45.7255Z" fill="white"/>
<path id="Vector_20" d="M38.8347 49.3797C39.1005 49.3697 39.393 49.3647 39.7149 49.3647C39.7149 49.3647 40.4781 47.2562 40.5204 47.1884C40.0925 47.0099 39.2042 46.5649 38.8612 46.3616C39.0873 46.6807 39.6377 47.0476 39.5288 47.3291L38.8347 49.3797Z" fill="white"/>
<path id="Vector_21" d="M46.0991 36.8748H25.0039V44.3738C25.0039 47.4398 27.3521 49.3599 30.8169 49.3599C33.7128 49.3599 34.4758 49.4653 35.5529 50.4756C36.2948 49.777 36.9091 49.5155 38.1695 49.4175L38.1986 49.302L38.8634 47.3594C38.8263 47.3166 37.7388 46.1481 37.7388 46.1481C37.3079 46.2839 36.9463 46.3065 36.3374 46.3065C35.7124 46.3065 35.0078 46.2385 34.2446 46.1029C34.1674 46.0854 34.0956 46.0803 34.0238 46.0803C33.9307 46.0803 33.9228 46.0878 33.8989 46.1305L33.7659 46.3365L33.5239 46.7135L33.0693 46.6155L31.0456 46.1656L30.7689 46.598L30.8115 46.6431L31.0588 46.8995L30.9499 47.2338C30.8008 47.671 30.3169 48.1811 30.1707 48.322L29.6654 48.8346L29.2055 48.2843L28.8598 47.8746C28.4953 47.4901 28.4104 46.8995 28.6151 46.2814C28.6097 46.2863 28.6017 46.2888 28.5939 46.2888L28.0222 46.5125L27.764 45.9846L27.5833 45.6104C27.2723 44.9519 27.3864 43.9894 28.2243 43.4088L29.8544 42.5393L31.4046 42.8284C31.4418 42.6875 31.4976 42.1849 31.5428 42.0569C31.5136 42.0544 31.4844 42.0468 31.455 42.0468L30.5616 42.3609L29.6999 41.798C29.6999 41.798 29.3623 41.4913 29.668 41.1848L30.503 39.9911L28.389 37.4829L31.6385 38.7446L31.854 38.4908L32.2926 37.9956L32.79 38.443C32.9309 38.5711 33.0107 38.7294 33.0505 38.8878C33.9466 39.217 35.5501 40.1896 35.691 41.7703L35.1885 41.9613V41.9739C35.3029 42.102 35.3986 42.1549 35.4277 42.1598L37.7466 42.376C37.8051 42.3659 37.8797 42.3408 37.9621 42.3181C38.2493 42.2253 38.6827 42.092 39.1958 42.092C39.6134 42.092 40.0174 42.1824 40.4057 42.3534C40.5494 42.3031 40.725 42.2654 40.9271 42.2529L41.0386 42.2504C42.2805 42.2504 42.8973 43.1273 43.3922 43.8261C43.4744 43.9465 43.5569 44.0623 43.642 44.1753C44.0754 44.7534 44.6417 45.6003 44.6658 45.6355L44.921 46.0125L44.6071 46.3568C44.3653 46.6205 44.0036 46.9298 43.3814 46.9298C43.2538 46.9298 43.1129 46.9171 42.9613 46.8894C42.8284 46.8669 42.7087 46.829 42.5917 46.7839C42.5731 46.8995 42.5491 47.0378 42.5251 47.1558L42.1183 49.1613C44.5514 48.5959 46.0964 46.8593 46.0964 44.3764L46.0991 36.8748Z" fill="white"/>
<path id="Vector_22" d="M25.0044 36.2715H41.4088C40.5897 35.4724 40.6005 34.4597 40.8105 33.8012C40.5712 33.693 40.3744 33.5623 40.199 33.4217C39.5581 33.8689 37.6009 35.216 37.0904 35.5527L36.9814 35.6232L30.5435 34.5224H30.4132C30.2591 34.5224 30.033 34.5173 29.7856 34.4897C29.7165 34.7637 29.4667 34.9522 29.1793 34.9522C29.1474 34.9522 29.1102 34.9497 29.0756 34.942C28.9081 34.9144 28.762 34.8339 28.6636 34.7008C28.5625 34.5702 28.5227 34.4143 28.5519 34.2535L28.5758 34.1228C27.911 33.6805 27.2994 32.6928 27.5706 31.6524L27.5971 31.5419L27.6903 31.479C27.7036 31.469 27.8152 31.3987 27.9801 31.3082L27.5121 31.2403C27.3366 31.2102 27.2196 31.0568 27.2463 30.8935C27.2755 30.7277 27.4403 30.6094 27.6132 30.6422L28.7273 30.808L28.8284 27.0987L30.4878 25.44L31.5222 27.4984L30.4291 31.0669L31.4132 31.2127C31.5859 31.2378 31.7056 31.391 31.6791 31.5594C31.6524 31.7077 31.5195 31.8108 31.3626 31.8108C31.3466 31.8108 31.328 31.8108 31.312 31.8083L30.5116 31.6852C30.5223 31.7077 30.5381 31.7202 30.5489 31.7453C30.6339 31.9113 30.8228 32.0319 30.9344 32.0822L35.8433 32.155C36.0506 31.964 36.5666 31.4865 37.0958 30.9814C35.8886 30.5492 35.4497 29.564 35.3752 28.9105C34.6999 28.6392 34.2345 28.2322 33.9766 27.7018C33.6627 27.046 33.7744 26.39 33.8568 26.0709C33.2027 25.8447 32.5141 25.4327 31.812 24.7742H24.4196C24.7361 25.5782 25.0044 26.4504 25.0044 27.3174V36.2715Z" fill="white"/>
<path id="Vector_23" d="M31.7612 40.1287C31.6415 40.1186 31.5406 40.2065 31.5325 40.3171C31.5245 40.4326 31.6149 40.5306 31.7373 40.5331C31.8542 40.5432 31.958 40.4577 31.9685 40.3447C31.9685 40.2341 31.8836 40.1312 31.7612 40.1287Z" fill="black" fill-opacity="0.9"/>
<path id="Vector_24" d="M46.0705 53.7269L44.8553 53.287L45.1903 52.1009L45.5599 50.8066C45.5599 50.8066 43.406 51.91 40.3719 52.7394C39.5104 52.973 38.8588 53.0785 38.8588 53.0785V53.958C38.8588 53.958 37.2368 54.2245 35.5961 54.2245H35.5773H35.5535H35.5216H35.5029C33.8624 54.2245 32.2402 53.958 32.2402 53.958V53.0785C32.2402 53.0785 31.5859 52.973 30.7271 52.7394C27.6929 51.91 25.5417 50.8066 25.5417 50.8066L25.9059 52.1009L26.249 53.287L25.0311 53.7269L23.6804 54.2043C25.2306 54.9105 27.3764 55.941 29.3418 56.4485L28.879 57.6448C28.879 57.6448 31.3706 58.7179 35.5216 58.728V58.7305H35.535H35.5535H35.5696H35.5801V58.728C39.7364 58.7179 42.2253 57.6448 42.2253 57.6448L41.7599 56.4485C43.725 55.941 45.8764 54.9105 47.4187 54.2043L46.0705 53.7269ZM25.1215 54.2848L27.1212 53.6566L26.5309 51.8345C27.411 52.307 29.387 53.0156 30.5302 53.3449L29.5651 55.8504C27.7993 55.3906 26.3288 54.8553 25.1215 54.2848ZM35.5535 58.0996C33.232 58.0996 30.5808 57.5945 29.8018 57.3333L30.9876 54.2999C31.9715 54.5714 34.0192 54.8603 35.5056 54.8501H35.5083H35.5535H35.5934H35.5987C37.0853 54.8603 39.1274 54.5714 40.1167 54.2999L41.2999 57.3333C40.5208 57.597 37.8723 58.0996 35.5535 58.0996ZM41.5366 55.8504L40.5741 53.3449C41.7201 53.0156 43.6904 52.307 44.5734 51.8345L43.9857 53.6566L45.9827 54.2848C44.7728 54.8553 43.3102 55.3906 41.5366 55.8504Z" fill="black" fill-opacity="0.9"/>
<path id="Vector_25" d="M35.5508 6.38055C38.0239 6.38055 40.0021 7.15469 41.0951 7.98154C41.0951 7.98154 41.4195 6.1343 42.5284 4.5034L40.5366 4.71693L39.4944 2.62359L37.4919 3.5987L35.5508 1.78418L33.6149 3.5987L31.61 2.62359L30.5702 4.71693L28.5784 4.5034C29.6872 6.1343 30.0117 7.98154 30.0117 7.98154C31.1072 7.15469 33.0803 6.38055 35.5508 6.38055ZM30.4796 5.45074L31.0328 5.5061L31.2722 5.03112L31.9688 3.62382L33.2612 4.25449L33.7612 4.49579L34.1601 4.12393L35.5534 2.81713L36.9495 4.12393L37.3484 4.49579L37.8483 4.25449L39.1328 3.62382L39.8374 5.03112L40.0714 5.5061L40.6244 5.45074L41.151 5.39042C40.909 5.90573 40.7308 6.39312 40.603 6.79787C39.2097 6.06407 37.3961 5.64675 35.5482 5.64675C33.7081 5.64675 31.897 6.06407 30.4983 6.79787C30.3682 6.39312 30.1926 5.90308 29.9505 5.39042L30.4796 5.45074Z" fill="black" fill-opacity="0.9"/>
<path id="Vector_26" d="M64.5647 30.8908C67.7639 30.8908 68.8327 27.8149 68.8779 27.6841L69.2342 26.6009L68.0349 26.6361H68.0298C67.6069 26.6361 64.0782 26.5481 61.5759 23.5425L61.3392 23.2636C59.7039 21.2984 58.1536 19.4311 55.3827 18.5791C55.4625 18.5114 55.5768 18.4259 55.7338 18.3304C57.2043 17.4156 58.0604 16.3048 58.2758 15.0156C58.5896 13.0755 57.2814 11.5299 57.2229 11.4671L56.3321 10.4267L55.7764 11.6607C55.7392 11.7385 54.8029 13.7139 52.8352 13.7139H52.6889C52.5534 13.7063 52.4257 13.7013 52.2981 13.6911C52.3673 12.8091 52.197 11.4445 50.8888 10.1653C49.3171 8.62478 47.3866 8.39355 46.3763 8.39355C45.8363 8.39355 45.4774 8.45637 45.4401 8.46149L44.0947 8.7127L44.9243 9.74566C45.5758 10.5423 46.1661 12.0125 45.4666 12.7815C45.2433 13.0253 44.7834 13.2238 44.3419 13.4223C43.4351 13.8168 42.1986 14.3646 42.1986 15.762C42.1986 16.6668 42.9406 17.6116 44.2861 18.4158C48.2696 20.7831 50.7265 23.2535 51.7876 25.9801C53.4283 30.1746 51.2876 32.567 49.2082 33.8261L48.2747 34.394L49.0912 35.1026C49.2001 35.1933 50.2001 36.025 51.6758 36.1458C51.955 36.1633 52.2235 36.1783 52.4737 36.1783C53.4203 36.1783 54.2261 36.0376 54.8801 35.849C54.6992 36.1481 54.4786 36.4523 54.1994 36.7589C53.0108 38.0605 51.5482 38.6538 49.4449 38.6839L48.663 38.6965L48.6018 39.4378C48.5938 39.586 48.5355 40.9608 49.9128 42.1294C50.1229 42.3101 50.3782 42.4586 50.6441 42.5818C49.7108 43.3759 48.7613 44.758 48.5781 47.1279C48.4238 49.1056 47.9238 49.837 47.9185 49.8444L47.0543 51.0909L48.6153 51.1111C51.1947 51.1111 53.1703 50.4376 54.5397 49.1056C55.3481 48.3165 55.8109 47.4269 56.0848 46.6379C56.5342 46.9996 57.114 47.3163 57.8689 47.4846C58.1562 47.5475 58.4701 47.5826 58.8078 47.5826C59.5364 47.5826 60.1454 47.4369 60.2145 47.4219L61.2116 47.1705L60.7702 46.2909C60.7383 46.2206 59.906 44.4564 60.802 41.9383C61.1877 40.8501 61.3844 39.875 61.4801 39.1161C62.1077 39.4251 62.9481 39.6815 64.0356 39.684C66.5033 39.684 67.5909 37.9425 67.6415 37.8696L68.1281 37.0704L67.2267 36.7186C64.2856 35.5651 63.6342 32.4664 63.5038 30.7878C63.7697 30.8355 64.0729 30.8808 64.4158 30.8908H64.5647ZM66.8968 37.4599C66.8968 37.4599 66.0352 38.8749 64.0595 38.8749H64.0356C61.6636 38.8623 60.7063 37.4951 60.7063 37.4951C60.7063 37.4951 60.8446 39.2745 59.9884 41.6744C58.9593 44.567 59.9963 46.6354 59.9963 46.6354C59.9963 46.6354 59.4433 46.776 58.8051 46.776C58.5604 46.776 58.3052 46.7534 58.0658 46.693C56.0848 46.2483 55.5902 44.5444 55.5902 44.5444C55.5902 44.5444 55.7736 50.3019 48.671 50.3019H48.6153C48.6153 50.3019 49.2401 49.4976 49.4262 47.183C49.7639 42.9109 52.8247 42.3254 52.8247 42.3254C52.8247 42.3254 51.1918 42.1319 50.4845 41.5313C49.3782 40.5838 49.4554 39.488 49.4554 39.488C51.955 39.4554 53.5905 38.6513 54.8375 37.2866C56.1885 35.8089 56.4118 34.2181 56.4118 34.2181C56.4118 34.2181 55.0688 35.3691 52.471 35.3691C52.2423 35.3691 51.9976 35.359 51.7476 35.3364C50.5191 35.2435 49.6682 34.5045 49.6682 34.5045C52.3725 32.866 54.2712 30.0061 52.588 25.6986C51.2397 22.2483 48.0009 19.6699 44.7408 17.7273C43.6558 17.0864 43.0521 16.3753 43.0521 15.762C43.0521 14.3195 45.2221 14.2743 46.113 13.3041C47.1392 12.1783 46.4957 10.3514 45.605 9.25314C45.605 9.25314 45.9055 9.19529 46.3788 9.19529C47.3175 9.19529 48.9423 9.41891 50.2771 10.7257C52.0508 12.4597 51.3141 14.3471 51.3141 14.3471L51.7902 14.4351C52.0748 14.4929 52.3567 14.503 52.6491 14.5155C52.7129 14.5155 52.7767 14.518 52.8405 14.518C55.4173 14.518 56.5688 11.9722 56.5688 11.9722C56.5688 11.9722 59.3077 15.1564 55.2764 17.6493C54.5823 18.0765 54.2764 18.471 54.3563 18.8933L54.4202 19.1698L54.7073 19.2175C57.6297 19.9664 59.1082 21.8714 60.9137 24.0375C63.6553 27.3323 67.5352 27.4379 68.0137 27.4379H68.0643C68.0643 27.4379 67.1787 30.079 64.5701 30.079C64.5275 30.079 64.4904 30.079 64.4451 30.0766C63.2459 30.0363 62.6316 29.6016 62.6316 29.6016C62.6316 29.6016 62.1609 35.6003 66.8968 37.4599Z" fill="black" fill-opacity="0.9"/>
<path id="Vector_27" d="M58.9459 18.911C60.1397 19.5115 60.8338 20.3158 61.4427 21.0294C62.041 21.7255 62.6101 22.3965 63.4981 22.6755C63.8146 22.7787 64.1496 22.8264 64.4901 22.8264C65.8249 22.8264 67.1653 22.0548 67.673 20.9868L68.1836 19.9162L66.9472 19.8458C66.8886 19.8433 65.2985 19.7075 63.5276 17.9962C62.7989 17.2952 61.9187 16.9255 60.9693 16.9255C59.8101 16.9255 58.951 17.4734 58.8553 17.5288L57.7172 18.2853L58.9459 18.911ZM60.9721 17.7349C61.5676 17.7349 62.2617 17.9258 62.9186 18.5667C64.9793 20.5445 66.8966 20.655 66.8966 20.655C66.5483 21.3838 65.5379 22.0247 64.4927 22.0247C64.2509 22.0247 64.0087 21.9895 63.7668 21.9117C62.3495 21.4593 61.8415 19.4488 59.3499 18.1972C59.3499 18.1972 60.0468 17.7349 60.9721 17.7349Z" fill="black" fill-opacity="0.9"/>
<path id="Vector_28" d="M59.5037 29.5891V29.6295C58.7858 24.156 54.579 20.2028 49.8988 17.7978C49.4655 17.5791 49.0666 17.3932 48.6783 17.2147C50.1036 17.4233 52.3985 17.4485 54.1694 15.9958C54.1694 15.9958 51.4597 17.8807 45.9074 16.1693C47.4445 17.1117 50.4307 18.4412 53.1563 20.5948C59.9719 26.2542 55.0948 31.7755 55.0948 31.7755C57.544 29.3606 57.6449 26.7721 56.9244 24.6586C58.214 26.6866 59.0384 29.1493 58.9107 32.1852C58.722 36.5353 56.1931 40.2975 53.5312 43.3207C52.2522 44.7883 51.9651 46.5902 51.9651 46.5902C51.9651 46.5902 52.4809 44.9995 53.962 43.3633C56.8153 40.2071 59.2537 36.9273 59.5728 32.2027C59.868 33.0598 61.0833 35.4447 63.0112 36.3418C63.0164 36.3443 60.5939 34.9647 59.5037 29.5891Z" fill="black" fill-opacity="0.9"/>
<path id="Vector_29" d="M23.1826 49.8419C23.18 49.8344 22.6854 49.1031 22.5259 47.1252C22.3398 44.7554 21.393 43.3732 20.457 42.5791C20.7283 42.4584 20.9782 42.3102 21.1883 42.1268C22.5631 40.9581 22.5045 39.5836 22.4965 39.4353L22.4434 38.6939L21.6562 38.6813C19.5583 38.6486 18.0929 38.0556 16.9043 36.7562C16.6278 36.4497 16.4045 36.1456 16.2236 35.8466C16.8777 36.0349 17.6781 36.1758 18.6275 36.1758C18.8828 36.1758 19.1461 36.1606 19.4253 36.1431C20.901 36.0224 21.901 35.1931 22.0126 35.1002L22.8289 34.3916L21.8956 33.8234C19.8081 32.5619 17.6755 30.1694 19.3135 25.9777C20.3745 23.2509 22.8289 20.7806 26.8177 18.4132C28.1633 17.6089 28.8997 16.6642 28.8997 15.7594C28.8997 14.3622 27.666 13.8118 26.7592 13.4197C26.3177 13.2212 25.8578 13.0227 25.6345 12.7789C24.9324 12.0124 25.5253 10.5398 26.1742 9.74304L27.0092 8.71025L25.6583 8.45888C25.6185 8.45391 25.2648 8.39111 24.7224 8.39111C23.7118 8.39111 21.7866 8.62233 20.2123 10.1628C18.9014 11.4445 18.7287 12.8091 18.795 13.6886C18.6674 13.6987 18.5398 13.7038 18.4068 13.7112H18.2633C16.2902 13.7112 15.3568 11.7361 15.3196 11.6581L14.7637 10.4241L13.8649 11.4645C13.8144 11.5275 12.5009 13.0754 12.8199 15.0131C13.0326 16.3022 13.8888 17.4129 15.3593 18.3278C15.5189 18.4233 15.6306 18.5087 15.7104 18.5767C12.9423 19.4284 11.3946 21.2983 9.75915 23.2634L9.52247 23.5424C7.02298 26.5481 3.48622 26.6362 3.06342 26.6362L1.85895 26.6009L2.2258 27.6839C2.26837 27.8147 3.33468 30.8907 6.53623 30.8907L6.69055 30.8858C7.0282 30.8757 7.33145 30.8329 7.60272 30.7827C7.4696 32.4588 6.8181 35.5576 3.87444 36.7136L2.97564 37.0654L3.46241 37.8646C3.5102 37.9374 4.60049 39.6791 7.07338 39.6791C8.15307 39.6764 8.9933 39.4201 9.62361 39.1111C9.71936 39.8699 9.91607 40.8451 10.3017 41.9332C11.1979 44.4513 10.3629 46.2156 10.3309 46.2859L9.88949 47.1656L10.8894 47.4168C10.9558 47.4318 11.5701 47.5776 12.296 47.5776C12.6364 47.5776 12.9503 47.5424 13.2322 47.4796C13.99 47.3112 14.5749 46.9947 15.0189 46.6327C15.2902 47.4217 15.7556 48.3114 16.5614 49.1006C17.9333 50.4324 19.9065 51.1059 22.4859 51.1059L24.0495 51.0859L23.1826 49.8419ZM22.4274 50.3018C15.3248 50.3018 15.5057 44.5443 15.5057 44.5443C15.5057 44.5443 15.0112 46.2482 13.03 46.6931C12.7933 46.7533 12.5407 46.7761 12.2934 46.7761C11.6553 46.7761 11.1047 46.6352 11.1047 46.6352C11.1047 46.6352 12.1365 44.5669 11.1073 41.6744C10.2565 39.2743 10.3948 37.4952 10.3948 37.4952C10.3948 37.4952 9.4401 38.8623 7.06557 38.8748H7.04158C5.06588 38.8748 4.20427 37.4599 4.20427 37.4599C8.93752 35.6028 8.47213 29.6066 8.47213 29.6066C8.47213 29.6066 7.858 30.0388 6.65596 30.0816C6.61339 30.0841 6.57359 30.0841 6.53101 30.0841C3.91962 30.0841 3.03683 27.4428 3.03683 27.4428H3.08999C3.57137 27.4428 7.4458 27.3372 10.1873 24.0426C11.9929 21.8763 13.474 19.9738 16.3911 19.2226L16.6835 19.1748L16.7475 18.8983C16.8273 18.4761 16.5241 18.0816 15.8301 17.6543C11.7988 15.1588 14.5377 11.9772 14.5377 11.9772C14.5377 11.9772 15.6838 14.5206 18.2659 14.5206C18.3296 14.5206 18.3882 14.5179 18.4546 14.5179C18.7444 14.5028 19.0318 14.4928 19.3135 14.4351L19.7896 14.3471C19.7896 14.3471 19.0529 12.4598 20.8293 10.7257C22.1642 9.41646 23.7889 9.19533 24.7249 9.19533C25.2009 9.19533 25.4961 9.25301 25.4961 9.25301C24.608 10.3537 23.9645 12.1783 24.9907 13.3042C25.879 14.2717 28.0462 14.3194 28.0462 15.7619C28.0462 16.3726 27.4427 17.0864 26.3578 17.7272C23.0948 19.6698 19.8561 22.2482 18.5105 25.6987C16.83 30.0062 18.7259 32.8634 21.4356 34.5046C21.4356 34.5046 20.5847 35.2433 19.3535 35.3364C19.1035 35.3591 18.8615 35.3691 18.6275 35.3691C16.0321 35.3691 14.6893 34.2179 14.6893 34.2179C14.6893 34.2179 14.9126 35.8089 16.2556 37.2866C17.5107 38.6511 19.1461 39.4553 21.6457 39.4881C21.6457 39.4881 21.7255 40.5838 20.6192 41.5311C19.9093 42.1292 18.2764 42.3252 18.2764 42.3252C18.2764 42.3252 21.3399 42.9108 21.6749 47.1831C21.8584 49.4976 22.478 50.3018 22.478 50.3018H22.4274Z" fill="black" fill-opacity="0.9"/>
<path id="Vector_30" d="M6.60865 22.8294C6.95169 22.8294 7.28673 22.7815 7.60302 22.6784C8.49659 22.3995 9.06294 21.7285 9.66126 21.0324C10.273 20.3187 10.9617 19.5145 12.1555 18.9139L13.3842 18.2907L12.2433 17.5342C12.1475 17.4764 11.2913 16.9312 10.1346 16.9312C9.18268 16.9312 8.29987 17.298 7.57383 18.0015C5.80283 19.7105 4.21535 19.8487 4.15678 19.8513L2.92035 19.919L3.42831 20.9922C3.93869 22.0552 5.27628 22.8294 6.60865 22.8294ZM8.18275 18.5697C8.84224 17.9287 9.53632 17.7378 10.1346 17.7378C11.0546 17.7378 11.7513 18.2 11.7513 18.2C9.26243 19.4542 8.75188 21.4623 7.32915 21.9145C7.09523 21.9924 6.85055 22.0277 6.60865 22.0277C5.56353 22.0277 4.55301 21.3893 4.20736 20.658C4.20736 20.6555 6.12189 20.5448 8.18275 18.5697Z" fill="black" fill-opacity="0.9"/>
<path id="Vector_31" d="M12.19 32.1877C12.057 29.1518 12.8815 26.6889 14.1737 24.6609C13.453 26.7744 13.5515 29.3629 16.0033 31.778C16.0033 31.778 11.1263 26.2568 17.9443 20.5973C20.6728 18.4435 23.6563 17.114 25.1907 16.1717C19.641 17.883 16.9312 15.9983 16.9312 15.9983C18.7021 17.4509 20.9971 17.4258 22.4225 17.2148C22.0369 17.393 21.6326 17.579 21.2044 17.7977C16.5191 20.2027 12.3149 24.1558 11.5943 29.6293V29.5867C10.5068 34.9622 8.08685 36.3418 8.08685 36.3418C10.0122 35.4445 11.2248 33.0622 11.5199 32.2028C11.8417 36.9274 14.28 40.2069 17.1333 43.3634C18.6145 44.9993 19.1358 46.5902 19.1358 46.5902C19.1358 46.5902 18.8459 44.7882 17.5616 43.3205C14.905 40.3024 12.3761 36.5378 12.19 32.1877Z" fill="black" fill-opacity="0.9"/>
<path id="Vector_32" d="M33.9471 21.1125V22.1982C34.3434 21.7433 35.1093 21.8364 35.1093 21.8364V23.402C35.1093 23.402 35.0826 24.171 34.7928 24.5052H35.6224H36.4494C36.165 24.1735 36.1355 23.402 36.1355 23.402V21.8364C36.1355 21.8364 36.9014 21.7433 37.295 22.1982V21.1125H35.6224H33.9471Z" fill="black" fill-opacity="0.9"/>
<path id="Vector_33" d="M33.2344 14.6741C33.7635 15.0714 34.0694 15.1366 34.08 15.1442L34.2874 15.2346V14.2117L32.341 13.4377C32.341 13.4402 32.3595 14.0307 33.2344 14.6741Z" fill="black" fill-opacity="0.9"/>
<path id="Vector_34" d="M37.8641 14.6741C38.7444 14.0307 38.7603 13.4377 38.7603 13.4377L36.8138 14.2117V15.2346L37.0185 15.1442C37.0319 15.1366 37.335 15.0714 37.8641 14.6741Z" fill="black" fill-opacity="0.9"/>
<path id="Vector_35" d="M41.3708 10.5098C41.3708 8.95919 38.6079 7.56445 35.5579 7.56445H35.5552H35.5473H35.5393C32.4892 7.56445 29.7264 8.95919 29.7264 10.5098L29.7876 10.8917L31.0053 17.4986L29.7823 18.1696L26.6178 19.9163H26.6286C26.6286 19.9163 25.9159 20.2605 25.586 20.4741C24.3816 21.2659 24.1263 22.4193 24.8255 22.8968C24.9985 21.9569 25.7855 20.9718 27.2587 20.9718C28.3197 20.9718 29.1281 21.4894 29.7823 22.266C29.9498 22.462 30.1094 22.6706 30.2583 22.8968C30.4416 23.1806 30.6251 23.4296 30.8087 23.6709H22.6584C23.2567 24.8093 23.8257 26.0156 23.8257 27.3249V44.3736C23.8257 48.5001 27.1843 50.4704 30.8166 50.4704C33.6247 50.4704 34.0025 50.3498 35.5527 51.8073C37.095 50.3473 37.4726 50.4704 40.2833 50.4704C43.9183 50.4704 47.2716 48.5001 47.2716 44.3736V27.3249C47.2716 26.0156 47.8407 24.8093 48.4416 23.6709H40.2886C40.4694 23.432 40.6529 23.1806 40.8363 22.8968C40.988 22.6706 41.1448 22.462 41.3097 22.266C41.9691 21.487 42.7748 20.9718 43.8359 20.9718C45.309 20.9718 46.0935 21.9544 46.269 22.8968C46.9685 22.4193 46.7158 21.2659 45.5031 20.4741C45.1788 20.2605 44.466 19.9163 44.466 19.9163H44.4768L41.3123 18.1696L40.0945 17.4986L41.3123 10.8917L41.3708 10.5098ZM30.9256 11.2788L35.2069 12.6509V19.0065L32.0559 17.4359L30.9256 11.2788ZM31.8112 24.779C32.5133 25.4399 33.202 25.8496 33.856 26.0758C33.7709 26.395 33.6594 27.0535 33.9758 27.7093C34.2336 28.237 34.7017 28.6443 35.3744 28.9156C35.4489 29.5691 35.885 30.5516 37.095 30.9865C36.5658 31.4915 36.0498 31.9665 35.8398 32.16L30.9336 32.0871C30.822 32.0343 30.6331 31.9163 30.5482 31.7479C30.5374 31.7253 30.5215 31.7126 30.5136 31.6875L31.3138 31.8106C31.3326 31.8131 31.3484 31.8131 31.3644 31.8131C31.5187 31.8131 31.6542 31.7126 31.6809 31.5619C31.7075 31.3935 31.5879 31.2401 31.415 31.215L30.4311 31.0693L31.524 27.5031L30.4896 25.445L28.8304 27.1038L28.7292 30.8129L27.6151 30.6471C27.4421 30.6144 27.2773 30.7351 27.2482 30.8984C27.2215 31.0619 27.3384 31.215 27.5139 31.2453L27.982 31.313C27.8145 31.4036 27.7055 31.4739 27.6921 31.4839L27.5963 31.5468L27.5698 31.6575C27.2986 32.6979 27.9128 33.6855 28.5751 34.1278L28.5511 34.2584C28.5245 34.4194 28.5617 34.575 28.6628 34.7058C28.7585 34.839 28.9074 34.9194 29.0722 34.947C29.1069 34.952 29.144 34.9545 29.176 34.9545C29.4631 34.9545 29.7132 34.766 29.785 34.4923C30.0322 34.5198 30.2583 34.5248 30.4124 34.5248H30.5428L36.9806 35.623L37.0896 35.5553C37.6027 35.2159 39.5573 33.869 40.1982 33.424C40.3736 33.5674 40.5704 33.6981 40.8097 33.806C40.6023 34.4644 40.589 35.4773 41.4108 36.2765H25.0038V27.3274C25.0038 26.4604 24.7352 25.5884 24.4188 24.7841H31.8112V24.779ZM39.7673 32.9668C39.1159 33.4191 37.4407 34.575 36.8343 34.9771L30.9842 33.9845C30.9976 33.9343 31.0107 33.8865 31.0241 33.8363C31.1012 33.5496 31.1783 33.1576 31.1837 32.6979L36.1004 32.7733L36.1935 32.6826C36.268 32.6124 37.8263 31.1899 38.6213 30.3706C38.8101 30.5943 39.0467 30.808 39.3551 30.9964C39.2488 31.5393 39.294 32.3133 39.7673 32.9668ZM29.9737 32.0091C30.112 32.2831 30.3618 32.4666 30.5348 32.5696C30.5294 32.8259 30.5029 33.2255 30.4311 33.5774C30.4151 33.6553 30.3939 33.7281 30.3699 33.801C30.3567 33.8464 30.3433 33.884 30.3327 33.9141C30.0748 33.9141 29.5668 33.884 29.152 33.7408C28.6921 33.5799 28.006 32.7833 28.1654 31.9063C28.365 31.7905 28.825 31.5468 29.2558 31.5468C29.5882 31.5443 29.8142 31.6925 29.9737 32.0091ZM29.3648 30.906L29.4631 27.3449L30.3087 26.498L30.8407 27.5485L29.7929 30.9663L29.3648 30.906ZM39.7142 49.3671C39.3951 49.3671 39.0999 49.3721 38.834 49.3823L39.5307 47.334C39.6398 47.05 39.0892 46.6856 38.8632 46.3665C39.2062 46.5701 40.0945 47.0149 40.5227 47.1934C40.4775 47.2586 39.7142 49.3671 39.7142 49.3671ZM41.9 47.04L41.4453 49.2818C41.1555 49.3194 40.8471 49.3394 40.5306 49.352L41.0092 47.1959C41.1528 46.5549 39.3313 46.3564 38.4326 45.0974C37.9937 45.5648 37.1667 45.7031 36.3371 45.7031C35.5793 45.7031 34.8214 45.5874 34.3613 45.502C34.2443 45.4845 34.1326 45.4719 34.0236 45.4719C33.7577 45.4719 33.5156 45.5498 33.3482 45.8161L33.2152 46.0273L30.7343 45.4744L30.1174 46.4394C30.0296 46.5953 30.0242 46.7285 30.1652 46.874L30.3327 47.0476C30.2183 47.3894 29.7026 47.9045 29.7026 47.9045L29.333 47.4696C29.0403 47.1606 29.0882 46.5978 29.3941 46.075L30.3779 44.5043L32.4787 44.7908L32.1516 44.0871C31.7129 43.1573 32.3803 41.9736 32.4521 41.2925C32.4281 41.4986 32.2286 41.5439 31.9947 41.5439C31.782 41.5439 31.5453 41.5061 31.3883 41.5061C31.3272 41.5061 31.274 41.5111 31.2448 41.5313L30.6757 41.858L30.2263 41.4835C30.1731 41.4106 30.1546 41.2423 30.2874 41.1166L31.3272 40.0159L30.0988 38.6614L31.8192 39.4781L32.343 38.8775C32.4867 39.0108 32.4255 39.36 32.4255 39.36C32.9627 39.3725 34.4676 40.1593 34.5475 41.9938C34.5528 42.0489 34.5528 42.1119 34.5528 42.172C34.5528 42.172 34.5662 42.1948 34.5927 42.2324C34.6991 42.3708 34.9915 42.725 35.3637 42.7576L37.7411 42.9789H37.7516C38.0124 42.9789 38.5309 42.6899 39.1956 42.6899C39.5573 42.6899 39.9614 42.7778 40.3923 43.0341C40.3923 43.0341 40.6076 42.8733 40.9586 42.8556C40.9852 42.8531 41.0146 42.8531 41.0412 42.8531C42.1075 42.8531 42.5489 43.763 43.1206 44.5194C43.5515 45.0949 44.1258 45.9494 44.1258 45.9494C43.913 46.188 43.7161 46.3188 43.3865 46.3188C43.2962 46.3188 43.1924 46.3111 43.0807 46.2911C41.9372 46.0925 41.7725 43.871 41.121 43.695C41.0864 43.685 41.0492 43.6825 41.0173 43.6825C40.8071 43.6825 40.7142 43.8585 40.7142 43.8585C41.0117 44.6148 40.839 44.9215 41.1582 45.5045C41.3974 45.9368 41.8228 46.2936 41.9984 46.462C41.9984 46.467 41.9506 46.7938 41.9 47.04ZM29.1335 44.9189L29.2424 45.1779C29.1706 45.404 28.3464 45.7256 28.3464 45.7256L28.1681 45.3586C27.9793 44.9666 28.0191 44.3058 28.5936 43.9011L29.9285 43.1321L31.3433 43.416C31.3166 43.8408 31.5851 44.1575 31.5851 44.1575L30.1013 43.8886L29.2132 44.4691C29.0643 44.5671 29.0537 44.7506 29.1335 44.9189ZM42.1234 49.1586L42.5303 47.153C42.5515 47.035 42.5781 46.8968 42.5967 46.7811C42.7111 46.8265 42.8334 46.8641 42.9663 46.8868C43.1179 46.9144 43.2588 46.9269 43.3865 46.9269C44.0089 46.9269 44.3704 46.6178 44.6124 46.3539L44.9263 46.0096L44.6709 45.6328C44.647 45.595 44.0832 44.7506 43.6471 44.1725C43.562 44.0595 43.4794 43.9464 43.3972 43.8233C42.9026 43.1245 42.283 42.2476 41.0412 42.2476L40.9295 42.2501C40.7247 42.2626 40.5492 42.3003 40.4083 42.3505C40.0173 42.1771 39.6158 42.0893 39.1982 42.0893C38.6851 42.0893 38.2516 42.2225 37.9644 42.3154C37.882 42.338 37.8076 42.3631 37.7491 42.3733L35.4276 42.157C35.3984 42.1521 35.3026 42.0994 35.1883 41.9686V41.9585L35.6909 41.7675C35.55 40.1869 33.9438 39.2143 33.0477 38.885C33.0079 38.7266 32.9281 38.5683 32.7872 38.4403L32.2872 37.9929L31.8484 38.4905L31.6331 38.7444L28.3836 37.4826L30.4976 39.9908L29.6626 41.1845C29.3568 41.4911 29.6945 41.7978 29.6945 41.7978L30.556 42.3581L31.4496 42.044C31.4814 42.044 31.5081 42.0516 31.5373 42.054C31.4948 42.1821 31.439 42.6848 31.4016 42.8255L29.8513 42.5365L28.2213 43.4061C27.3837 43.9866 27.2693 44.9491 27.5805 45.6076L27.7613 45.9819L28.0191 46.5098L28.5883 46.286C28.5963 46.2835 28.6043 46.281 28.6094 46.2761C28.4048 46.8943 28.4873 47.4823 28.8542 47.8694L29.1998 48.2815L29.66 48.8319L30.1652 48.3191C30.3141 48.1784 30.7954 47.6684 30.9444 47.231L31.0533 46.8966L30.8061 46.6404L30.7661 46.5953L31.0428 46.1629L33.0662 46.6128L33.521 46.7108L33.763 46.3338L33.896 46.1276C33.9199 46.085 33.9278 46.0774 34.021 46.0774C34.0927 46.0774 34.1645 46.085 34.2417 46.1001C35.0048 46.2358 35.7094 46.3038 36.3344 46.3038C36.9407 46.3038 37.3023 46.281 37.7357 46.1454C37.7357 46.1454 38.8234 47.3114 38.8605 47.3566L38.1959 49.2968L38.1666 49.4149C36.9061 49.5103 36.2919 49.7718 35.55 50.4729C34.473 49.4625 33.7098 49.3571 30.8141 49.3571C27.3491 49.3571 25.0011 47.4371 25.0011 44.3711V36.8746H46.0935L46.0989 44.3711C46.1014 46.859 44.5565 48.593 42.1234 49.1586ZM46.6838 24.779C46.3622 25.5833 46.0935 26.4554 46.0935 27.3224L46.0963 32.9165C44.8596 32.7205 44.7135 31.4613 44.7081 31.4061L44.6842 31.1498L44.4183 31.1271C43.8811 31.0794 43.5248 30.8631 43.2243 30.5869C42.618 30.0139 42.6152 29.084 42.618 29.0764C42.6101 29.1241 41.9506 29.9961 42.7165 30.9486C43.0381 31.3508 43.5035 31.5971 44.1072 31.6951C44.2481 32.3938 44.7985 33.3788 46.0963 33.5296V36.2689H42.4478C40.7645 35.3844 41.4772 33.8261 41.5117 33.7609L41.6554 33.4643L41.3336 33.3486C39.5121 32.7104 40.0121 30.9914 40.0386 30.9185L40.113 30.6671L39.8658 30.5566C38.3606 29.8981 38.5655 28.1215 38.5841 28.0486C38.1214 28.4029 37.9538 29.1266 38.2729 29.8354C38.1001 30.0214 37.8689 30.2475 37.6161 30.4938C36.0578 30.1195 36.0101 28.7649 36.0101 28.7021L36.0072 28.4934L35.8026 28.418C35.1937 28.2044 34.7761 27.8853 34.5713 27.4554C34.3401 26.9806 34.4224 26.483 34.4864 26.2441C34.6645 26.2819 34.8426 26.3096 35.0128 26.3221C35.1883 26.3396 35.3691 26.3498 35.55 26.3498H35.5606H35.5739C35.7547 26.3498 35.933 26.3396 36.1084 26.3221C37.079 26.2316 38.1666 25.8371 39.2994 24.7765H46.6838V24.779ZM40.9986 19.1245L42.4398 19.9163H42.4611L42.8228 20.1148C42.0091 20.3284 41.3869 20.7129 40.8657 21.218C40.8471 21.2331 40.8285 21.2533 40.8097 21.2708C40.6901 21.3914 40.5704 21.5221 40.4588 21.6554C40.4375 21.6805 40.4162 21.7081 40.3923 21.7358C40.2806 21.8714 40.177 22.0098 40.0758 22.1554C40.0599 22.1806 40.0412 22.2058 40.0227 22.2283C39.903 22.3966 39.7887 22.5776 39.6744 22.7635C38.6479 24.4348 37.0098 25.4325 35.5527 25.435C34.0981 25.4325 32.4601 24.4348 31.4336 22.7635C31.3218 22.5825 31.2103 22.4068 31.0905 22.2358C31.0666 22.2031 31.0453 22.1705 31.0241 22.1428C30.9231 22.0046 30.822 21.8689 30.7183 21.7409C30.6917 21.7056 30.6677 21.6779 30.6411 21.6478C30.5294 21.5195 30.4151 21.3914 30.3007 21.2733C30.2769 21.2558 30.2609 21.2331 30.237 21.213C29.7132 20.7079 29.0935 20.3259 28.2772 20.1148L28.6441 19.9163H28.66L30.1013 19.1245L31.5825 18.323L35.5393 20.3585L35.5473 20.351L35.5579 20.3585L39.5147 18.323L40.9986 19.1245ZM39.0467 17.4383L35.893 19.009V12.6509L40.1716 11.2788L39.0467 17.4383ZM35.55 11.9523L30.8592 10.2007C31.2581 9.30857 33.0982 8.54948 35.55 8.54699C38.0044 8.54948 39.8445 9.30857 40.2407 10.2007L35.55 11.9523Z" fill="black" fill-opacity="0.9"/>
<path id="Vector_36" d="M93.6374 38.5494V28.4866H99.883V24.8249H82.8445V28.4866H89.0898V38.5494H93.6374ZM106.099 32.8116V24.8249H101.703V38.5494H105.584L113.163 30.5626V38.5494H117.559V24.8249H113.678L106.099 32.8116ZM132.348 33.446V38.5494H136.745V24.8249H132.348V29.8418H125.284V24.8249H120.888V38.5494H125.284V33.446H132.348ZM148.987 38.5494C149.987 38.5494 150.896 38.463 151.745 38.2323C154.021 37.6269 155.504 35.8679 155.504 33.4748C155.504 31.197 154.232 29.6113 152.202 28.8903C151.229 28.5444 150.079 28.5155 148.987 28.5155H144.469V24.8249H140.074V38.5494H148.987ZM148.228 31.7449C148.835 31.7449 149.411 31.7449 149.926 31.9179C150.655 32.1485 151.079 32.7251 151.079 33.4171C151.079 34.138 150.655 34.7435 149.957 35.0318C149.472 35.2336 148.987 35.2336 148.228 35.2336H144.469V31.7449H148.228ZM163.387 33.3595L168.632 38.5494H174.482L167.177 31.3988L174.21 24.8249H168.693L163.387 29.986H162.175V24.8249H157.78V38.5494H162.175V33.3595H163.387ZM183.528 24.4501C177.616 24.4501 174.07 27.6216 174.07 31.7159C174.07 35.8104 177.616 38.982 183.528 38.982C189.411 38.982 192.958 35.8104 192.958 31.7159C192.958 27.6216 189.411 24.4501 183.528 24.4501ZM183.528 35.6374C180.587 35.6374 178.709 33.965 178.709 31.7159C178.709 29.4671 180.587 27.8235 183.528 27.8235C186.439 27.8235 188.349 29.4671 188.349 31.7159C188.349 33.965 186.439 35.6374 183.528 35.6374ZM207.599 24.0464H203.202V25.4303C197.685 25.5456 194.379 27.7658 194.379 31.6871C194.379 35.6084 197.685 37.6556 203.202 37.771V39.155H207.599V37.771C213.145 37.6556 216.451 35.6084 216.451 31.6871C216.451 27.7658 213.145 25.5456 207.599 25.4303V24.0464ZM203.202 34.83C200.17 34.7146 198.836 33.5325 198.836 31.6871C198.836 29.8418 200.17 28.5155 203.202 28.4003V34.83ZM207.599 28.4003C210.661 28.5155 211.964 29.8418 211.964 31.6871C211.964 33.5325 210.661 34.7146 207.599 34.83V28.4003ZM231.076 24.0464H226.679V25.4303C221.161 25.5456 217.858 27.7658 217.858 31.6871C217.858 35.6084 221.161 37.6556 226.679 37.771V39.155H231.076V37.771C236.625 37.6556 239.929 35.6084 239.929 31.6871C239.929 27.7658 236.625 25.5456 231.076 25.4303V24.0464ZM226.679 34.83C223.648 34.7146 222.314 33.5325 222.314 31.6871C222.314 29.8418 223.648 28.5155 226.679 28.4003V34.83ZM231.076 28.4003C234.138 28.5155 235.442 29.8418 235.442 31.6871C235.442 33.5325 234.138 34.7146 231.076 34.83V28.4003Z" fill="black" fill-opacity="0.9"/>
</g>
<defs>
<clipPath id="clip0_907_1424">
<rect width="240" height="60" fill="white"/>
</clipPath>
</defs>
</svg>
