<svg width="24" height="24" viewBox="0 0 24 24" fill="none" xmlns="http://www.w3.org/2000/svg">
<g id="vk logo">
<path id="Vector" d="M22.7084 5.51719C22.8625 4.93125 22.7084 4.5 21.9667 4.5H19.5125C18.8875 4.5 18.6 4.87031 18.4459 5.28281C18.4459 5.28281 17.1959 8.70937 15.4292 10.9312C14.8584 11.5734 14.5959 11.7797 14.2834 11.7797C14.1292 11.7797 13.8917 11.5734 13.8917 10.9875V5.51719C13.8917 4.81406 13.7167 4.5 13.2 4.5H9.34169C8.95002 4.5 8.71669 4.82812 8.71669 5.13281C8.71669 5.79844 9.60002 5.95312 9.69169 7.82812V11.8969C9.69169 12.7875 9.55002 12.9516 9.23752 12.9516C8.40419 12.9516 6.37919 9.51094 5.17919 5.57344C4.93752 4.80938 4.70002 4.5 4.07086 4.5H1.61669C0.916691 4.5 0.775024 4.87031 0.775024 5.28281C0.775024 6.01406 1.60836 9.64688 4.65419 14.4469C6.68336 17.7234 9.54169 19.5 12.1417 19.5C13.7042 19.5 13.8959 19.1063 13.8959 18.4266C13.8959 15.2953 13.7542 15 14.5375 15C14.9 15 15.525 15.2063 16.9834 16.7859C18.65 18.6609 18.925 19.5 19.8584 19.5H22.3125C23.0125 19.5 23.3667 19.1062 23.1625 18.3281C22.6959 16.6922 19.5417 13.3266 19.4 13.1016C19.0375 12.5766 19.1417 12.3422 19.4 11.8734C19.4042 11.8688 22.4 7.125 22.7084 5.51719Z" fill="white"/>
</g>
</svg>
