<svg width="36" height="37" viewBox="0 0 36 37" fill="none" xmlns="http://www.w3.org/2000/svg">
<g id="vuesax/linear/box-2">
<g id="box-2">
<path id="Vector" d="M21.33 15.17L18 16.835M18 16.835L14.67 15.17M18 16.835V21.005M31.335 10.16L28.005 11.825M31.335 10.16L28.005 8.495M31.335 10.16V14.33M21.33 5.165L18 3.5L14.67 5.165M4.66498 10.16L7.99498 8.495M4.66498 10.16L7.99498 11.825M4.66498 10.16V14.33M18 33.5L14.67 31.835M18 33.5L21.33 31.835M18 33.5V29.33M7.99498 28.505L4.66498 26.84V22.67M28.005 28.505L31.335 26.84V22.67" stroke="#0669FF" stroke-width="1.5" stroke-linecap="round" stroke-linejoin="round"/>
</g>
</g>
</svg>
