<svg width="16" height="16" viewBox="0 0 16 16" fill="none" xmlns="http://www.w3.org/2000/svg">
<path d="M1.3335 14.6666H14.6668" stroke="#0669FF" stroke-linecap="round" stroke-linejoin="round"/>
<path d="M2.07373 14.6666V8.66663C2.07373 7.55996 3.06706 6.66663 4.29373 6.66663H11.7004C12.9271 6.66663 13.9204 7.55996 13.9204 8.66663V14.6666" stroke="#0669FF" stroke-linecap="round" stroke-linejoin="round"/>
<path d="M3.70654 6.66671V4.78004C3.70654 3.98004 4.42654 3.33337 5.31988 3.33337H10.6865C11.5732 3.33337 12.2932 3.98004 12.2932 4.78004V6.66671" stroke="#0669FF" stroke-linecap="round" stroke-linejoin="round"/>
<path d="M2.35352 9.31995L2.60018 9.32661C3.09352 9.33328 3.48685 9.73328 3.48685 10.2266V10.4466C3.48685 10.9399 3.88685 11.3466 4.38685 11.3466C4.88018 11.3466 5.28685 10.9466 5.28685 10.4466V10.2399C5.28685 9.74661 5.68685 9.33995 6.18685 9.33995C6.68018 9.33995 7.08685 9.73995 7.08685 10.2399V10.4466C7.08685 10.9399 7.48685 11.3466 7.98685 11.3466C8.48018 11.3466 8.88685 10.9466 8.88685 10.4466V10.2399C8.88685 9.74661 9.28685 9.33995 9.78685 9.33995C10.2802 9.33995 10.6868 9.73995 10.6868 10.2399V10.4466C10.6868 10.9399 11.0868 11.3466 11.5868 11.3466C12.0802 11.3466 12.4868 10.9466 12.4868 10.4466V10.2399C12.4868 9.74661 12.8868 9.33995 13.3868 9.33995H13.6868" stroke="#0669FF" stroke-linecap="round" stroke-linejoin="round"/>
<path d="M5.3335 3.33333V2" stroke="#0669FF" stroke-linecap="round" stroke-linejoin="round"/>
<path d="M10.6665 3.33333V2" stroke="#0669FF" stroke-linecap="round" stroke-linejoin="round"/>
<path d="M8 3.33337V1.33337" stroke="#0669FF" stroke-linecap="round" stroke-linejoin="round"/>
</svg>
