<svg width="36" height="37" viewBox="0 0 36 37" fill="none" xmlns="http://www.w3.org/2000/svg">
<g id="vuesax/linear/profile-2user">
<g id="profile-2user">
<path id="Vector" d="M13.74 16.805C13.59 16.79 13.41 16.79 13.245 16.805C9.675 16.685 6.84 13.76 6.84 10.16C6.84 6.485 9.81 3.5 13.5 3.5C17.175 3.5 20.16 6.485 20.16 10.16C20.145 13.76 17.31 16.685 13.74 16.805Z" stroke="#0669FF" stroke-width="2" stroke-linecap="round" stroke-linejoin="round"/>
<path id="Vector_2" d="M24.615 6.5C27.525 6.5 29.865 8.855 29.865 11.75C29.865 14.585 27.615 16.895 24.81 17C24.69 16.985 24.555 16.985 24.42 17" stroke="#0669FF" stroke-width="2" stroke-linecap="round" stroke-linejoin="round"/>
<path id="Vector_3" d="M6.23999 22.34C2.60999 24.77 2.60999 28.73 6.23999 31.145C10.365 33.905 17.13 33.905 21.255 31.145C24.885 28.715 24.885 24.755 21.255 22.34C17.145 19.595 10.38 19.595 6.23999 22.34Z" stroke="#0669FF" stroke-width="2" stroke-linecap="round" stroke-linejoin="round"/>
<path id="Vector_4" d="M27.51 30.5C28.59 30.275 29.61 29.84 30.45 29.195C32.79 27.44 32.79 24.545 30.45 22.79C29.625 22.16 28.62 21.74 27.555 21.5" stroke="#0669FF" stroke-width="2" stroke-linecap="round" stroke-linejoin="round"/>
</g>
</g>
</svg>
