<svg width="48" height="48" viewBox="0 0 48 48" fill="none" xmlns="http://www.w3.org/2000/svg">
<path d="M4.13999 9.20001C5.73999 2.28001 16.16 2.28001 17.74 9.20001C18.68 13.26 16.1 16.7 13.86 18.84C12.22 20.4 9.63999 20.38 7.99999 18.84C5.77999 16.7 3.19999 13.26 4.13999 9.20001Z" stroke="#0669FF" stroke-width="2"/>
<path d="M30.14 33.2C31.74 26.28 42.22 26.28 43.82 33.2C44.76 37.26 42.18 40.7 39.92 42.84C38.28 44.4 35.68 44.38 34.04 42.84C31.78 40.7 29.2 37.26 30.14 33.2Z" stroke="#0669FF" stroke-width="2"/>
<path d="M24 10H29.36C33.06 10 34.78 14.58 32 17.02L16.02 31C13.24 33.42 14.96 38 18.64 38H24" stroke="#0669FF" stroke-width="2" stroke-linecap="round" stroke-linejoin="round"/>
<path d="M10.9724 11H10.9955" stroke="#0669FF" stroke-width="2" stroke-linecap="round" stroke-linejoin="round"/>
<path d="M36.9724 35H36.9955" stroke="#0669FF" stroke-width="2" stroke-linecap="round" stroke-linejoin="round"/>
</svg>
